<svg width="500" height="348" viewBox="0 0 500 348" fill="none" xmlns="http://www.w3.org/2000/svg">
<path d="M500 328.398H0V328.648H500V328.398Z" fill="#EBEBEB"/>
<path d="M449.899 344.494H416.777V344.744H449.899V344.494Z" fill="#EBEBEB"/>
<path d="M331.22 347.208H322.527V347.458H331.22V347.208Z" fill="#EBEBEB"/>
<path d="M415.778 335.208H396.586V335.458H415.778V335.208Z" fill="#EBEBEB"/>
<path d="M95.6539 336.888H52.4609V337.138H95.6539V336.888Z" fill="#EBEBEB"/>
<path d="M110.888 336.888H104.555V337.138H110.888V336.888Z" fill="#EBEBEB"/>
<path d="M225.149 341.111H131.473V341.361H225.149V341.111Z" fill="#EBEBEB"/>
<path d="M237.014 283.8H43.915C40.768 283.8 38.207 281.239 38.207 278.092V6.66C38.207 3.513 40.768 0.951996 43.915 0.951996H237.014C240.16 0.951996 242.721 3.513 242.721 6.66V278.092C242.721 281.239 240.16 283.8 237.014 283.8ZM43.915 1.203C40.905 1.203 38.457 3.651 38.457 6.661V278.093C38.457 281.103 40.905 283.551 43.915 283.551H237.014C240.023 283.551 242.471 281.103 242.471 278.093V6.66C242.471 3.651 240.023 1.202 237.014 1.202L43.915 1.203Z" fill="#EBEBEB"/>
<path d="M453.309 283.8H260.211C257.064 283.8 254.504 281.239 254.504 278.092V6.66C254.504 3.513 257.065 0.951996 260.211 0.951996H453.309C456.457 0.951996 459.017 3.513 459.017 6.66V278.092C459.018 281.239 456.457 283.8 453.309 283.8ZM260.211 1.203C257.202 1.203 254.754 3.651 254.754 6.661V278.093C254.754 281.103 257.202 283.551 260.211 283.551H453.309C456.319 283.551 458.767 281.103 458.767 278.093V6.66C458.767 3.651 456.319 1.202 453.309 1.202L260.211 1.203Z" fill="#EBEBEB"/>
<path d="M289.692 120.058L427.473 120.058V29.8312L289.692 29.8312V120.058Z" fill="#E6E6E6"/>
<path d="M285.488 120.058L425.508 120.058V29.8312L285.488 29.8312V120.058Z" fill="#F0F0F0"/>
<path d="M289.692 137.766L427.473 137.766V120.058L289.692 120.058V137.766Z" fill="#E6E6E6"/>
<path d="M278.484 137.766L418.504 137.766V120.058L278.484 120.058V137.766Z" fill="#F0F0F0"/>
<path d="M419.621 114.173V35.7171L291.372 35.7171V114.173L419.621 114.173Z" fill="#FAFAFA"/>
<path d="M390.703 114.174L374.323 35.718H348.762L365.142 114.174H390.703Z" fill="white"/>
<path d="M416.898 108.315C417.13 108.315 417.319 108.127 417.319 107.895V39.547C417.319 39.315 417.131 39.127 416.898 39.127C416.666 39.127 416.477 39.315 416.477 39.547V107.895C416.477 108.127 416.666 108.315 416.898 108.315Z" fill="#F0F0F0"/>
<path d="M359.651 114.174L343.271 35.718H333.305L349.686 114.174H359.651Z" fill="white"/>
<path d="M292.121 114.173V35.7171H291.374V114.173H292.121Z" fill="#E6E6E6"/>
<path opacity="0.6" d="M284.094 44.591H421.875L422.416 38.005H284.635L284.094 44.591Z" fill="#EBEBEB"/>
<path opacity="0.6" d="M284.094 55.393H421.875L422.416 48.807H284.635L284.094 55.393Z" fill="#EBEBEB"/>
<path opacity="0.6" d="M284.094 66.195H421.875L422.416 59.609H284.635L284.094 66.195Z" fill="#EBEBEB"/>
<path opacity="0.6" d="M284.094 76.997H421.875L422.416 70.411H284.635L284.094 76.997Z" fill="#EBEBEB"/>
<path opacity="0.6" d="M284.094 87.799H421.875L422.416 81.213H284.635L284.094 87.799Z" fill="#EBEBEB"/>
<path opacity="0.6" d="M284.094 98.601H421.875L422.416 92.015H284.635L284.094 98.601Z" fill="#EBEBEB"/>
<path d="M407.69 262.781H378.801V268.477H407.69V262.781Z" fill="#E6E6E6"/>
<path d="M324.308 328.399H329.641V197.334H324.308V328.399Z" fill="#E6E6E6"/>
<path d="M305.838 268.477H378.801V262.781H305.838V268.477Z" fill="#F5F5F5"/>
<path d="M407.69 293.948H378.801V299.644H407.69V293.948Z" fill="#E6E6E6"/>
<path d="M305.838 299.643H378.801V293.947H305.838V299.643Z" fill="#F5F5F5"/>
<path d="M407.69 200.448H378.801V206.144H407.69V200.448Z" fill="#E6E6E6"/>
<path d="M305.838 206.143H378.801V200.447H305.838V206.143Z" fill="#F5F5F5"/>
<path d="M407.69 231.615H378.801V237.311H407.69V231.615Z" fill="#E6E6E6"/>
<path d="M305.838 237.31H378.801V231.614H305.838V237.31Z" fill="#F5F5F5"/>
<path d="M397.272 328.399H402.605V197.334H397.272V328.399Z" fill="#E6E6E6"/>
<path d="M373.468 328.399H378.801V197.334H373.468V328.399Z" fill="#F5F5F5"/>
<path d="M305.835 328.399H311.168V197.334H305.835V328.399Z" fill="#F5F5F5"/>
<path d="M65.3751 328.399H119.953L119.953 222.507H65.3751L65.3751 328.399Z" fill="#E6E6E6"/>
<path d="M79.949 328.399H65.375V313.781H95.229L79.949 328.399Z" fill="#FAFAFA"/>
<path d="M214.184 328.399H268.762V222.507H214.184V328.399Z" fill="#E6E6E6"/>
<path d="M65.3734 323.368H226.902V222.507H65.3734V323.368Z" fill="#FAFAFA"/>
<path d="M212.332 328.399H226.906V313.781H197.051L212.332 328.399Z" fill="#FAFAFA"/>
<path d="M76.6807 285.331H215.598V260.09H76.6807V285.331Z" fill="#F0F0F0"/>
<path d="M76.6807 315.967H215.598V290.726H76.6807V315.967Z" fill="#F0F0F0"/>
<path d="M103.084 262.79H189.192C191.719 262.79 193.768 260.741 193.768 258.213V257.905H98.5078V258.213C98.5078 260.741 100.557 262.79 103.084 262.79Z" fill="#FAFAFA"/>
<path d="M76.6807 254.696L215.598 254.696V229.455L76.6807 229.455V254.696Z" fill="#F0F0F0"/>
<path d="M103.084 232.154H189.192C191.719 232.154 193.768 230.105 193.768 227.577V227.269H98.5078V227.577C98.5078 230.105 100.557 232.154 103.084 232.154Z" fill="#FAFAFA"/>
<path d="M103.084 293.425H189.192C191.719 293.425 193.768 291.376 193.768 288.849V288.541H98.5078V288.849C98.5078 291.376 100.557 293.425 103.084 293.425Z" fill="#FAFAFA"/>
<path d="M74.0667 120.058L211.848 120.058V29.8312L74.0667 29.8312V120.058Z" fill="#E6E6E6"/>
<path d="M69.8628 120.058L209.883 120.058V29.8312L69.8628 29.8312V120.058Z" fill="#F0F0F0"/>
<path d="M74.0667 137.766L211.848 137.766V120.058L74.0667 120.058V137.766Z" fill="#E6E6E6"/>
<path d="M62.8589 137.766L202.879 137.766V120.058L62.8589 120.058V137.766Z" fill="#F0F0F0"/>
<path d="M204 114.174L204 35.7177L75.751 35.7177L75.751 114.174L204 114.174Z" fill="#FAFAFA"/>
<path d="M175.079 114.174L158.698 35.718H133.137L149.518 114.174H175.079Z" fill="white"/>
<path d="M201.273 108.315C201.505 108.315 201.693 108.127 201.693 107.895V39.547C201.693 39.315 201.505 39.127 201.273 39.127C201.041 39.127 200.852 39.315 200.852 39.547V107.895C200.853 108.127 201.041 108.315 201.273 108.315Z" fill="#F0F0F0"/>
<path d="M144.026 114.174L127.645 35.718H117.68L134.061 114.174H144.026Z" fill="white"/>
<path d="M76.4961 114.174L76.4961 35.7177H75.7491L75.7491 114.174H76.4961Z" fill="#E6E6E6"/>
<path opacity="0.6" d="M68.4727 44.591H206.254L206.796 38.005H69.0147L68.4727 44.591Z" fill="#EBEBEB"/>
<path opacity="0.6" d="M68.4727 48.307H206.254L206.796 41.72H69.0147L68.4727 48.307Z" fill="#EBEBEB"/>
<path opacity="0.6" d="M68.4727 52.022H206.254L206.796 45.436H69.0147L68.4727 52.022Z" fill="#EBEBEB"/>
<path opacity="0.6" d="M68.4727 55.738H206.254L206.796 49.151H69.0147L68.4727 55.738Z" fill="#EBEBEB"/>
<path opacity="0.6" d="M68.4727 59.453H206.254L206.796 52.867H69.0147L68.4727 59.453Z" fill="#EBEBEB"/>
<path opacity="0.6" d="M68.4727 63.168H206.254L206.796 56.582H69.0147L68.4727 63.168Z" fill="#EBEBEB"/>
<path d="M96.0143 219.271H100.777V166.179H96.0143V219.271Z" fill="#F5F5F5"/>
<path d="M96.6277 219.234H97.9727V166.142H96.6277V219.234Z" fill="#FAFAFA"/>
<path d="M98.5355 219.235H99.0625V166.143H98.5355V219.235Z" fill="#FAFAFA"/>
<path d="M80.7617 222.507H116.026C116.026 220.053 114.037 218.064 111.583 218.064H85.2047C82.7507 218.064 80.7617 220.053 80.7617 222.507Z" fill="#F0F0F0"/>
<path d="M89.8348 199.138C90.5888 199.138 91.2048 198.521 91.2048 197.768V162.958C91.2048 162.205 90.5878 161.588 89.8348 161.588C89.0808 161.588 88.4648 162.205 88.4648 162.958V197.768C88.4648 198.522 89.0808 199.138 89.8348 199.138Z" fill="#F0F0F0"/>
<path d="M77.0742 178.799H119.716L114.811 149H81.9792L77.0742 178.799Z" fill="#E0E0E0"/>
</svg>
