<svg width="292" height="257" viewBox="0 0 292 257" fill="none" xmlns="http://www.w3.org/2000/svg">
<path d="M110.468 39.098C158.568 44.476 179.684 2.77701 227.35 8.23801C269.894 13.112 299.226 43.423 289.298 84.244C280.485 120.48 238.493 131.854 223.562 165.801C207.735 201.786 195.458 240.594 147.66 253.121C53.8054 277.718 8.21935 162.237 1.83235 95.911C-0.618648 70.45 -4.89664 9.58401 28.3374 1.69601C61.7874 -6.24399 80.9634 35.799 110.468 39.098Z" fill="#407BFF"/>
<path opacity="0.9" d="M110.468 39.098C158.568 44.476 179.684 2.77701 227.35 8.23801C269.894 13.112 299.226 43.423 289.298 84.244C280.485 120.48 238.493 131.854 223.562 165.801C207.735 201.786 195.458 240.594 147.66 253.121C53.8054 277.718 8.21935 162.237 1.83235 95.911C-0.618648 70.45 -4.89664 9.58401 28.3374 1.69601C61.7874 -6.24399 80.9634 35.799 110.468 39.098Z" fill="white"/>
</svg>
