<svg width="35" height="35" viewBox="0 0 35 35" fill="none" xmlns="http://www.w3.org/2000/svg">
<path fill-rule="evenodd" clip-rule="evenodd" d="M18.9583 4.375C18.9583 3.98822 18.8046 3.61729 18.5311 3.3438C18.2576 3.07031 17.8867 2.91666 17.4999 2.91666C17.1131 2.91666 16.7422 3.07031 16.4687 3.3438C16.1952 3.61729 16.0416 3.98822 16.0416 4.375V5.46875H15.2293C13.666 5.46864 12.1614 6.06432 11.0219 7.13451C9.88235 8.2047 9.19349 9.66894 9.09555 11.2292L8.77326 16.3829C8.65036 18.3479 7.99057 20.2416 6.86576 21.8575C6.63335 22.1915 6.49134 22.58 6.45355 22.9852C6.41576 23.3904 6.48347 23.7985 6.65009 24.1698C6.81671 24.541 7.07658 24.8629 7.40442 25.104C7.73226 25.345 8.11691 25.4972 8.52097 25.5456L13.4895 26.1406V27.7083C13.4895 28.7719 13.912 29.792 14.6641 30.5441C15.4162 31.2962 16.4363 31.7187 17.4999 31.7187C18.5636 31.7187 19.5836 31.2962 20.3357 30.5441C21.0878 29.792 21.5103 28.7719 21.5103 27.7083V26.1406L26.4789 25.5442C26.8827 25.4956 27.2671 25.3434 27.5947 25.1024C27.9224 24.8614 28.1821 24.5398 28.3487 24.1687C28.5153 23.7977 28.5831 23.3899 28.5455 22.9849C28.5079 22.5799 28.3661 22.1915 28.1341 21.8575C27.0092 20.2416 26.3494 18.3479 26.2266 16.3829L25.9043 11.2306C25.8067 9.67014 25.118 8.20553 23.9784 7.13504C22.8388 6.06454 21.3341 5.46867 19.7705 5.46875H18.9583V4.375ZM15.2293 7.65624C14.2224 7.65612 13.2534 8.03974 12.5194 8.72901C11.7854 9.41827 11.3417 10.3613 11.2787 11.3662L10.9578 16.52C10.8096 18.8839 10.0156 21.1619 8.66243 23.1058C8.64561 23.13 8.63533 23.1581 8.63258 23.1874C8.62984 23.2167 8.63472 23.2462 8.64676 23.2731C8.65879 23.2999 8.67757 23.3232 8.70127 23.3407C8.72497 23.3581 8.75279 23.3692 8.78201 23.3727L14.2318 24.0275C16.4033 24.2871 18.5966 24.2871 20.768 24.0275L26.2178 23.3727C26.2471 23.3692 26.2749 23.3581 26.2986 23.3407C26.3223 23.3232 26.3411 23.2999 26.3531 23.2731C26.3651 23.2462 26.37 23.2167 26.3673 23.1874C26.3645 23.1581 26.3542 23.13 26.3374 23.1058C24.9847 21.1617 24.1913 18.8838 24.0435 16.52L23.7212 11.3662C23.6581 10.3613 23.2144 9.41827 22.4805 8.72901C21.7465 8.03974 20.7774 7.65612 19.7705 7.65624H15.2293ZM17.4999 29.5312C16.4937 29.5312 15.677 28.7146 15.677 27.7083V26.6146H19.3228V27.7083C19.3228 28.7146 18.5062 29.5312 17.4999 29.5312Z" fill="#97FEED"/>
</svg>
