<svg width="35" height="35" viewBox="0 0 35 35" fill="none" xmlns="http://www.w3.org/2000/svg">
<path fill-rule="evenodd" clip-rule="evenodd" d="M18.9583 4.375C18.9583 3.98822 18.8047 3.61729 18.5312 3.3438C18.2577 3.07031 17.8868 2.91666 17.5 2.91666C17.1132 2.91666 16.7423 3.07031 16.4688 3.3438C16.1953 3.61729 16.0417 3.98822 16.0417 4.375V5.46875H15.2294C13.6661 5.46864 12.1615 6.06432 11.022 7.13451C9.88242 8.2047 9.19356 9.66894 9.09562 11.2292L8.77333 16.3829C8.65044 18.3479 7.99065 20.2416 6.86583 21.8575C6.63342 22.1915 6.49142 22.58 6.45363 22.9852C6.41583 23.3904 6.48354 23.7985 6.65016 24.1698C6.81679 24.541 7.07666 24.8629 7.4045 25.104C7.73233 25.345 8.11699 25.4972 8.52104 25.5456L13.4896 26.1406V27.7083C13.4896 28.7719 13.9121 29.792 14.6642 30.5441C15.4163 31.2962 16.4364 31.7187 17.5 31.7187C18.5636 31.7187 19.5837 31.2962 20.3358 30.5441C21.0879 29.792 21.5104 28.7719 21.5104 27.7083V26.1406L26.479 25.5442C26.8828 25.4956 27.2672 25.3434 27.5948 25.1024C27.9224 24.8614 28.1822 24.5398 28.3488 24.1687C28.5153 23.7977 28.5831 23.3899 28.5455 22.9849C28.5079 22.5799 28.3662 22.1915 28.1342 21.8575C27.0093 20.2416 26.3495 18.3479 26.2267 16.3829L25.9044 11.2306C25.8068 9.67014 25.1181 8.20553 23.9785 7.13504C22.8389 6.06454 21.3341 5.46867 19.7706 5.46875H18.9583V4.375ZM15.2294 7.65624C14.2225 7.65612 13.2534 8.03974 12.5195 8.72901C11.7855 9.41827 11.3418 10.3613 11.2787 11.3662L10.9579 16.52C10.8097 18.8839 10.0157 21.1619 8.6625 23.1058C8.64568 23.13 8.6354 23.1581 8.63266 23.1874C8.62991 23.2167 8.63479 23.2462 8.64683 23.2731C8.65887 23.2999 8.67765 23.3232 8.70135 23.3407C8.72505 23.3581 8.75286 23.3692 8.78208 23.3727L14.2319 24.0275C16.4033 24.2871 18.5967 24.2871 20.7681 24.0275L26.2179 23.3727C26.2471 23.3692 26.2749 23.3581 26.2986 23.3407C26.3223 23.3232 26.3411 23.2999 26.3532 23.2731C26.3652 23.2462 26.3701 23.2167 26.3673 23.1874C26.3646 23.1581 26.3543 23.13 26.3375 23.1058C24.9848 21.1617 24.1914 18.8838 24.0435 16.52L23.7212 11.3662C23.6582 10.3613 23.2145 9.41827 22.4805 8.72901C21.7466 8.03974 20.7775 7.65612 19.7706 7.65624H15.2294ZM17.5 29.5312C16.4937 29.5312 15.6771 28.7146 15.6771 27.7083V26.6146H19.3229V27.7083C19.3229 28.7146 18.5062 29.5312 17.5 29.5312Z" fill="white"/>
</svg>
