<svg width="35" height="35" viewBox="0 0 35 35" fill="none" xmlns="http://www.w3.org/2000/svg">
<path fill-rule="evenodd" clip-rule="evenodd" d="M18.9583 4.37484C18.9583 3.98806 18.8046 3.61713 18.5311 3.34364C18.2576 3.07015 17.8867 2.9165 17.4999 2.9165C17.1131 2.9165 16.7422 3.07015 16.4687 3.34364C16.1952 3.61713 16.0416 3.98806 16.0416 4.37484V5.46859H15.2293C13.666 5.46848 12.1614 6.06416 11.0219 7.13435C9.88235 8.20454 9.19349 9.66878 9.09555 11.229L8.77326 16.3827C8.65036 18.3478 7.99057 20.2414 6.86576 21.8573C6.63335 22.1914 6.49134 22.5799 6.45355 22.9851C6.41576 23.3903 6.48347 23.7983 6.65009 24.1696C6.81671 24.5409 7.07658 24.8627 7.40442 25.1038C7.73226 25.3449 8.11691 25.497 8.52097 25.5455L13.4895 26.1404V27.7082C13.4895 28.7718 13.912 29.7918 14.6641 30.5439C15.4162 31.296 16.4363 31.7186 17.4999 31.7186C18.5636 31.7186 19.5836 31.296 20.3357 30.5439C21.0878 29.7918 21.5103 28.7718 21.5103 27.7082V26.1404L26.4789 25.544C26.8827 25.4954 27.2671 25.3433 27.5947 25.1023C27.9224 24.8613 28.1821 24.5396 28.3487 24.1686C28.5153 23.7975 28.5831 23.3897 28.5455 22.9847C28.5079 22.5797 28.3661 22.1914 28.1341 21.8573C27.0092 20.2414 26.3494 18.3478 26.2266 16.3827L25.9043 11.2305C25.8067 9.66998 25.118 8.20537 23.9784 7.13488C22.8388 6.06438 21.3341 5.46851 19.7705 5.46859H18.9583V4.37484ZM15.2293 7.65608C14.2224 7.65596 13.2534 8.03958 12.5194 8.72885C11.7854 9.41811 11.3417 10.3612 11.2787 11.3661L10.9578 16.5198C10.8096 18.8838 10.0156 21.1617 8.66243 23.1057C8.64561 23.1298 8.63533 23.1579 8.63258 23.1872C8.62984 23.2165 8.63472 23.246 8.64676 23.2729C8.65879 23.2998 8.67757 23.3231 8.70127 23.3405C8.72497 23.358 8.75279 23.369 8.78201 23.3725L14.2318 24.0273C16.4033 24.2869 18.5966 24.2869 20.768 24.0273L26.2178 23.3725C26.2471 23.369 26.2749 23.358 26.2986 23.3405C26.3223 23.3231 26.3411 23.2998 26.3531 23.2729C26.3651 23.246 26.37 23.2165 26.3673 23.1872C26.3645 23.1579 26.3542 23.1298 26.3374 23.1057C24.9847 21.1616 24.1913 18.8836 24.0435 16.5198L23.7212 11.3661C23.6581 10.3612 23.2144 9.41811 22.4805 8.72885C21.7465 8.03958 20.7774 7.65596 19.7705 7.65608H15.2293ZM17.4999 29.5311C16.4937 29.5311 15.677 28.7144 15.677 27.7082V26.6144H19.3228V27.7082C19.3228 28.7144 18.5062 29.5311 17.4999 29.5311Z" fill="black"/>
</svg>
