<svg width="99" height="304" viewBox="0 0 99 304" fill="none" xmlns="http://www.w3.org/2000/svg">
<path d="M66.6875 60.08C67.5815 59.632 68.6465 59.053 69.6315 58.512C70.6345 57.961 71.6325 57.386 72.6145 56.788C74.5735 55.582 76.5485 54.39 78.4225 53.066C82.2045 50.461 85.7475 47.57 88.9355 44.413C89.3535 44.031 89.7085 43.607 90.0945 43.203L90.6645 42.591L90.9505 42.285L91.0935 42.132C91.1315 42.092 91.1225 42.1 91.1045 42.124L91.0725 42.173C90.9305 42.44 91.0485 42.359 91.1035 42.101C91.1705 41.853 91.2265 41.448 91.2445 41.01C91.3085 39.194 90.9505 36.905 90.5155 34.692C89.6255 30.207 88.2775 25.594 86.9455 21.074L90.8305 19.37C93.2645 23.716 95.2925 28.155 96.9435 32.968C97.7295 35.406 98.4515 37.854 98.6625 40.861C98.7015 41.627 98.7185 42.432 98.5795 43.371C98.4325 44.295 98.1995 45.401 97.3565 46.655L97.1895 46.886L97.0605 47.054L96.9065 47.242L96.5985 47.616L95.9815 48.366C95.5645 48.86 95.1685 49.381 94.7255 49.844C91.2775 53.673 87.4415 57.055 83.3465 59.996C81.3085 61.485 79.2265 62.899 77.0635 64.186C75.9865 64.838 74.8955 65.464 73.7865 66.071C72.6635 66.695 71.5955 67.238 70.3195 67.837L66.6875 60.08Z" fill="#FFB573"/>
<path d="M57.7937 295.178C58.5677 295.178 59.4137 295.018 60.0047 294.878C60.0817 294.86 60.1407 294.798 60.1547 294.719C60.1687 294.641 60.1347 294.562 60.0687 294.519C59.7817 294.33 57.2387 292.689 56.2637 293.13C56.1097 293.2 55.9167 293.353 55.8687 293.688C55.8057 294.132 55.9167 294.486 56.1977 294.742C56.5547 295.068 57.1497 295.178 57.7937 295.178ZM59.4437 294.595C57.9857 294.886 56.8887 294.836 56.4647 294.449C56.2847 294.285 56.2177 294.054 56.2617 293.743C56.2847 293.576 56.3627 293.521 56.4267 293.492C56.9397 293.26 58.4067 293.968 59.4437 294.595Z" fill="#407BFF"/>
<path d="M59.9619 294.884C59.9959 294.884 60.0309 294.875 60.0619 294.857C60.1229 294.821 60.1609 294.756 60.1609 294.685C60.1609 294.583 60.1499 292.171 59.2389 291.365C58.9969 291.151 58.7149 291.062 58.3989 291.1C57.9019 291.16 57.7679 291.473 57.7309 291.653C57.5419 292.597 59.0649 294.404 59.8639 294.857C59.8939 294.875 59.9279 294.884 59.9619 294.884ZM58.5369 291.488C58.6999 291.488 58.8439 291.545 58.9759 291.662C59.5199 292.143 59.7059 293.497 59.7519 294.3C58.9549 293.664 58.0059 292.306 58.1209 291.731C58.1399 291.637 58.1939 291.525 58.4469 291.494C58.4769 291.49 58.5069 291.488 58.5369 291.488Z" fill="#407BFF"/>
<path d="M59.2242 35.067C58.2502 40.037 56.1962 50.104 59.6742 53.421C59.6742 53.421 58.3152 58.463 49.0802 58.463C38.9252 58.463 44.2272 53.422 44.2272 53.422C49.7702 52.098 49.6272 47.986 48.6612 44.124L59.2242 35.067Z" fill="#FFB573"/>
<path d="M42.2857 55.424C40.6917 55.64 42.0477 51.511 42.6957 51.083C44.1917 50.094 63.5467 48.694 63.4207 51.043C63.3407 52.054 62.8657 54.027 62.0197 54.697C61.1727 55.367 56.2007 53.342 42.2857 55.424Z" fill="#263238"/>
<path d="M45.44 54.034C44.174 54.462 44.294 50.301 44.725 49.8C45.723 48.642 61.389 44.617 61.854 46.894C62.033 47.877 62.119 49.841 61.582 50.604C61.045 51.366 56.442 50.105 45.44 54.034Z" fill="#263238"/>
<path d="M39.6104 26.108C39.4874 26.115 39.3634 26.066 39.2794 25.963C38.1594 24.593 36.7034 24.733 36.6894 24.735C36.4684 24.758 36.2754 24.601 36.2524 24.383C36.2284 24.165 36.3864 23.969 36.6044 23.946C36.6814 23.938 38.5044 23.761 39.8944 25.46C40.0334 25.63 40.0084 25.88 39.8384 26.018C39.7714 26.074 39.6914 26.103 39.6104 26.108Z" fill="#263238"/>
<path d="M37.6742 31.001C37.6742 31.001 36.8182 34.008 35.6992 35.528C36.6682 36.269 38.1402 35.742 38.1402 35.742L37.6742 31.001Z" fill="#FF5652"/>
<path d="M38.1596 29.786C38.2256 30.458 37.9226 31.038 37.4836 31.082C37.0436 31.125 36.6346 30.615 36.5676 29.943C36.5016 29.271 36.8046 28.691 37.2436 28.647C37.6836 28.604 38.0936 29.114 38.1596 29.786Z" fill="#263238"/>
<path d="M37.4461 28.665L35.7852 28.358C35.7852 28.358 36.7381 29.539 37.4461 28.665Z" fill="#263238"/>
<path d="M69.7002 294.685H61.3242L61.9812 275.288H70.3572L69.7002 294.685Z" fill="#FFB573"/>
<path d="M60.6606 293.716H70.0706C70.4126 293.716 70.6906 293.954 70.7386 294.288L71.8106 301.733C71.9216 302.505 71.2576 303.236 70.4676 303.223C67.1866 303.167 65.6056 302.974 61.4676 302.974C58.9216 302.974 55.2016 303.238 51.6866 303.238C48.2476 303.238 47.9836 299.761 49.4476 299.447C56.0116 298.035 57.0486 296.088 59.2606 294.231C59.6586 293.896 60.1596 293.716 60.6606 293.716Z" fill="#263238"/>
<g opacity="0.2">
<path d="M70.3586 275.293H61.9785L61.6445 285.292H70.0245L70.3586 275.293Z" fill="black"/>
</g>
<path d="M36.3752 65.044C31.1922 63.015 26.2482 60.808 21.3252 58.29C16.4102 55.775 11.5712 53.096 6.92123 49.517C5.76323 48.606 4.6182 47.61 3.4992 46.447C3.2202 46.147 2.9412 45.869 2.6672 45.525C2.3792 45.163 2.1622 44.95 1.7882 44.394C1.1122 43.422 0.589217 42.117 0.450217 40.785C0.319217 39.452 0.558214 38.179 0.941214 37.164C1.32321 36.131 1.8242 35.288 2.3482 34.557C3.3992 33.093 4.5642 32.011 5.7372 31.037C8.0802 29.098 10.5582 27.688 13.0402 26.37C14.2802 25.712 15.5442 25.119 16.8242 24.573C18.1102 24.018 19.3652 23.502 20.7302 23.032L22.5052 26.885C18.1432 29.634 13.6252 32.656 10.3032 36.044C9.49621 36.883 8.79021 37.761 8.34621 38.534C7.87021 39.321 7.87621 39.91 7.95721 39.865C7.99821 39.865 7.9822 39.847 8.0982 39.963L8.49621 40.39C8.64621 40.569 8.85722 40.752 9.04622 40.936C9.83122 41.669 10.7522 42.405 11.7452 43.105C13.7302 44.518 15.9172 45.84 18.1792 47.075C20.4332 48.327 22.7522 49.525 25.1142 50.662C29.8262 52.919 34.7122 55.091 39.5062 57.075L36.3752 65.044Z" fill="#FFB573"/>
<path d="M24.97 24.154L26.3551 21.15L20.0591 18.964C20.0591 18.964 18.098 24.867 20.435 27.591C22.425 27.272 24.126 25.984 24.97 24.154Z" fill="#FFB573"/>
<path d="M26.3546 14.656L21.3216 13.205L20.0586 18.963L26.3546 21.15V14.656Z" fill="#FFB573"/>
<path d="M91.3519 21.441L92.0859 14.421L85.5979 15.946C85.5979 15.946 85.5029 22.526 88.9349 23.575L91.3519 21.441Z" fill="#FFB573"/>
<path d="M88.9575 9.50699L84.7305 11.481L85.5945 15.946L92.0825 14.421L88.9575 9.50699Z" fill="#FFB573"/>
<path d="M60.5401 25.255C60.8451 33.562 61.1521 37.072 57.3981 41.721C51.7521 48.713 41.4811 47.271 38.7001 39.222C36.1971 31.977 36.1181 19.609 43.8781 15.527C51.5231 11.507 60.2351 16.947 60.5401 25.255Z" fill="#FFB573"/>
<path d="M56.9216 41.705C65.0766 38.181 70.4406 30.75 68.1766 19.131C66.0106 8.01499 58.5056 6.91699 55.4056 9.22299C52.3056 11.529 44.5786 8.09199 39.9416 11.994C31.9066 18.755 39.5026 26.044 43.4596 30.363C45.8236 35.221 48.9196 45.163 56.9216 41.705Z" fill="#263238"/>
<path d="M53.5356 17.137C56.2876 21.122 61.5656 22.247 65.3256 19.65C69.0856 17.054 69.9026 11.719 67.1506 7.73398C64.3986 3.74898 59.1206 2.62398 55.3606 5.22098C51.6006 7.81698 50.7836 13.152 53.5356 17.137Z" fill="#407BFF"/>
<path d="M55.6527 10.002C54.4757 3.30399 60.8137 -1.86101 69.2887 0.634994C77.7637 3.13099 73.2807 10.644 71.5427 16.644C69.8047 22.644 74.3657 28.359 76.2717 23.789C78.1777 19.22 74.9737 17.809 74.9737 17.809C74.9737 17.809 83.9727 20.142 75.6127 30.286C67.2527 40.431 59.6847 29.229 61.7317 22.618C63.3857 17.276 56.7657 16.333 55.6527 10.002Z" fill="#263238"/>
<path d="M47.1844 12.533C43.3154 10.515 36.7634 8.883 33.0344 15.156C31.2714 18.122 31.9544 22.145 31.9544 22.145L43.3434 22.903L47.1844 12.533Z" fill="#263238"/>
<path d="M30.6137 20.178C30.6087 20.178 30.6037 20.178 30.5977 20.177C30.4597 20.169 30.3557 20.05 30.3637 19.912C30.3737 19.742 30.6497 15.719 33.0777 13.195C38.9467 7.09698 45.8277 12.155 47.7967 13.851C47.9017 13.941 47.9137 14.099 47.8227 14.204C47.7317 14.309 47.5747 14.32 47.4697 14.23C45.5847 12.607 39.0027 7.75998 33.4377 13.542C31.1387 15.931 30.8647 19.903 30.8617 19.943C30.8547 20.075 30.7447 20.178 30.6137 20.178Z" fill="#263238"/>
<path d="M44.8549 30.033C44.8429 31.651 44.1179 33.235 43.1999 34.31C41.8179 35.926 40.2339 35.13 39.8709 33.338C39.5439 31.725 39.8679 28.941 41.6149 27.965C43.3349 27.004 44.8689 28.183 44.8549 30.033Z" fill="#FFB573"/>
<path d="M43.0547 106.122C43.0547 106.122 43.5887 164.266 48.6327 196.667C52.7067 222.837 60.2457 283.356 60.2457 283.356H71.6677C71.6677 283.356 72.7837 224.932 70.7157 199.048C65.4827 133.55 78.9867 121.305 68.0897 106.122H43.0547Z" fill="#263238"/>
<path opacity="0.1" d="M43.0547 106.122C43.0547 106.122 43.5887 164.266 48.6327 196.667C52.7067 222.837 60.2457 283.356 60.2457 283.356H71.6677C71.6677 283.356 72.7837 224.932 70.7157 199.048C65.4827 133.55 78.9867 121.305 68.0897 106.122H43.0547Z" fill="white"/>
<path opacity="0.3" d="M49.0594 132.5C53.0694 150.05 49.8694 177.69 47.6794 189.86C45.3594 171.38 44.1894 147.43 43.6094 129.88C45.6794 126.52 47.6394 126.3 49.0594 132.5Z" fill="black"/>
<path d="M58.6807 283.582H73.2297L73.9937 278.478L58.5977 277.957L58.6807 283.582Z" fill="#407BFF"/>
<path d="M62.8338 57.042C64.2018 54.321 71.5588 52.609 75.5798 52.615L78.5898 65.98C78.5898 65.98 70.5778 77.87 67.2468 76.609C63.3108 75.122 59.9018 62.872 62.8338 57.042Z" fill="#407BFF"/>
<path opacity="0.4" d="M62.8338 57.042C64.2018 54.321 71.5588 52.609 75.5798 52.615L78.5898 65.98C78.5898 65.98 70.5778 77.87 67.2468 76.609C63.3108 75.122 59.9018 62.872 62.8338 57.042Z" fill="black"/>
<path d="M54.3536 280.313C54.3896 280.254 54.3926 280.179 54.3596 280.117C54.3206 280.043 54.2386 280.001 54.1546 280.014C53.7346 280.077 50.0326 280.665 49.5326 281.722C49.4356 281.927 49.4496 282.143 49.5716 282.347C49.7756 282.688 50.0645 282.88 50.4295 282.917C51.6425 283.042 53.3945 281.359 54.3305 280.345C54.3385 280.334 54.3466 280.324 54.3536 280.313ZM49.9126 281.85C50.2546 281.289 52.1686 280.772 53.6296 280.503C52.3106 281.844 51.1486 282.591 50.4686 282.521C50.2306 282.496 50.0486 282.372 49.9106 282.142C49.8566 282.052 49.8506 281.975 49.8906 281.891C49.8976 281.877 49.9046 281.863 49.9126 281.85Z" fill="#407BFF"/>
<path d="M54.3544 280.313C54.3624 280.301 54.3684 280.287 54.3724 280.273C54.3954 280.207 54.3805 280.133 54.3355 280.08C54.2725 280.007 52.7894 278.298 51.4224 278.209C51.0034 278.182 50.6374 278.306 50.3324 278.579C49.9214 278.947 49.9565 279.267 50.0595 279.47C50.4925 280.328 53.1524 280.627 54.2254 280.404C54.2794 280.392 54.3254 280.359 54.3544 280.313ZM50.4394 279.054C50.4704 279.003 50.5204 278.943 50.5974 278.874C50.8224 278.672 51.0844 278.584 51.3964 278.605C52.2944 278.664 53.3155 279.593 53.7795 280.066C52.5945 280.166 50.6734 279.806 50.4134 279.291C50.3984 279.26 50.3594 279.184 50.4394 279.054Z" fill="#407BFF"/>
<path d="M63.0825 276.765L55.4214 280.168L52.0074 273.063L47.5464 263.759L47.0234 262.677L54.6754 259.269L55.2675 260.487L59.5924 269.497L63.0825 276.765Z" fill="#FFB573"/>
<path opacity="0.2" d="M59.5929 269.497L52.0079 273.063L47.5469 263.759L55.2679 260.487L59.5929 269.497Z" fill="black"/>
<path d="M34.0703 106.122C34.0703 106.122 9.59629 166.957 16.2303 195.604C22.2253 221.494 48.7343 270.525 48.7343 270.525L58.9843 265.38C58.9843 265.38 42.5963 206.192 40.8183 193.334C37.3593 168.316 59.5943 133.001 59.5943 106.122H34.0703Z" fill="#263238"/>
<path opacity="0.1" d="M34.0703 106.122C34.0703 106.122 9.59629 166.957 16.2303 195.604C22.2253 221.494 48.7343 270.525 48.7343 270.525L58.9843 265.38C58.9843 265.38 42.5963 206.192 40.8183 193.334C37.3593 168.316 59.5943 133.001 59.5943 106.122H34.0703Z" fill="white"/>
<path d="M54.0547 279.103L61.6627 273.565C61.9397 273.363 62.3047 273.392 62.5397 273.634L67.7877 279.023C68.3317 279.582 68.2247 280.564 67.5787 281.018C64.8927 282.903 63.5007 283.678 60.1557 286.113C58.0967 287.611 53.9947 290.924 51.1527 292.993C48.3727 295.016 46.1127 292.361 47.1117 291.245C51.5887 286.241 52.5317 283.146 53.2267 280.343C53.3517 279.838 53.6497 279.398 54.0547 279.103Z" fill="#263238"/>
<path d="M48.0725 272.694L61.3035 266.642L59.6055 261.251L45.4375 267.713L48.0725 272.694Z" fill="#407BFF"/>
<path d="M40.5668 56.36C39.4688 53.519 29.9098 50.403 25.1148 49.315L23.0078 65.083C23.0078 65.083 30.8388 76.338 34.2778 75.407C38.3378 74.308 42.9188 62.447 40.5668 56.36Z" fill="#407BFF"/>
<path opacity="0.4" d="M40.5668 56.36C39.4688 53.519 29.9098 50.403 25.1148 49.315L23.0078 65.083C23.0078 65.083 30.8388 76.338 34.2778 75.407C38.3378 74.308 42.9188 62.447 40.5668 56.36Z" fill="black"/>
<path d="M30.0662 55.567C30.0662 55.567 26.0762 56.972 34.0692 106.122C47.5682 106.122 61.5202 106.122 68.0882 106.122C67.5172 92.276 67.5012 83.739 74.1182 55.324C74.1182 55.324 66.9902 53.773 59.6722 53.421C53.9472 53.145 49.2572 52.962 44.2242 53.422C37.5912 54.027 30.0662 55.567 30.0662 55.567Z" fill="#407BFF"/>
<path opacity="0.4" d="M30.0662 55.567C30.0662 55.567 26.0762 56.972 34.0692 106.122C47.5682 106.122 61.5202 106.122 68.0882 106.122C67.5172 92.276 67.5012 83.739 74.1182 55.324C74.1182 55.324 66.9902 53.773 59.6722 53.421C53.9472 53.145 49.2572 52.962 44.2242 53.422C37.5912 54.027 30.0662 55.567 30.0662 55.567Z" fill="black"/>
<path d="M68.6008 104.125L70.1348 107.17C70.2538 107.406 69.9738 107.647 69.5808 107.647H33.9038C33.5968 107.647 33.3428 107.497 33.3238 107.304L33.0168 104.259C32.9958 104.048 33.2618 103.869 33.5968 103.869H68.0468C68.2998 103.87 68.5238 103.973 68.6008 104.125Z" fill="#407BFF"/>
<path opacity="0.3" d="M68.6008 104.125L70.1348 107.17C70.2538 107.406 69.9738 107.647 69.5808 107.647H33.9038C33.5968 107.647 33.3428 107.497 33.3238 107.304L33.0168 104.259C32.9958 104.048 33.2618 103.869 33.5968 103.869H68.0468C68.2998 103.87 68.5238 103.973 68.6008 104.125Z" fill="white"/>
<path d="M63.9705 107.977H64.8935C65.0775 107.977 65.2175 107.882 65.2045 107.767L64.7715 103.811C64.7585 103.695 64.5985 103.601 64.4145 103.601H63.4915C63.3075 103.601 63.1675 103.696 63.1805 103.811L63.6135 107.767C63.6265 107.883 63.7875 107.977 63.9705 107.977Z" fill="#263238"/>
<path d="M41.6112 107.977H42.5342C42.7182 107.977 42.8582 107.882 42.8452 107.767L42.4122 103.811C42.3992 103.695 42.2392 103.601 42.0552 103.601H41.1322C40.9482 103.601 40.8081 103.696 40.8211 103.811L41.2542 107.767C41.2662 107.883 41.4272 107.977 41.6112 107.977Z" fill="#263238"/>
</svg>
