<svg width="35" height="35" viewBox="0 0 35 35" fill="none" xmlns="http://www.w3.org/2000/svg">
<path d="M31 16.987C31 9.8175 25.176 4 18 4C10.824 4 5 9.8175 5 16.987C5 20.9358 6.794 24.4945 9.602 26.8832C9.628 26.9093 9.654 26.9093 9.654 26.9353C9.888 27.1173 10.122 27.2992 10.382 27.4812C10.512 27.5592 10.616 27.6616 10.746 27.7656C12.8944 29.2222 15.4304 30.0006 18.026 30C20.6216 30.0006 23.1576 29.2222 25.306 27.7656C25.436 27.6876 25.54 27.5853 25.67 27.5056C25.904 27.3253 26.164 27.1432 26.398 26.9613C26.424 26.9352 26.45 26.9352 26.45 26.9092C29.206 24.4929 31 20.9358 31 16.987ZM18 28.3636C15.556 28.3636 13.32 27.5836 11.474 26.2852C11.5 26.0772 11.552 25.8709 11.604 25.6629C11.7589 25.0992 11.9861 24.5579 12.28 24.0525C12.566 23.5585 12.904 23.1165 13.32 22.7265C13.71 22.3365 14.178 21.9741 14.646 21.6881C15.14 21.4021 15.66 21.1941 16.232 21.0381C16.8084 20.8827 17.403 20.8046 18 20.8057C19.7723 20.7932 21.4795 21.473 22.758 22.7005C23.356 23.2985 23.824 24.0005 24.162 24.8049C24.344 25.2729 24.474 25.7669 24.552 26.2852C22.6332 27.6343 20.3456 28.3599 18 28.3636ZM14.022 16.3386C13.7929 15.8141 13.6777 15.247 13.684 14.6746C13.684 14.1042 13.788 13.5323 14.022 13.0122C14.256 12.4923 14.568 12.0259 14.958 11.6359C15.348 11.2459 15.816 10.9355 16.336 10.7015C16.856 10.4675 17.428 10.3635 18 10.3635C18.598 10.3635 19.144 10.4675 19.664 10.7015C20.184 10.9355 20.652 11.2475 21.042 11.6359C21.432 12.0259 21.744 12.4939 21.978 13.0122C22.212 13.5323 22.316 14.1042 22.316 14.6746C22.316 15.2726 22.212 15.8186 21.978 16.337C21.7522 16.8493 21.435 17.3162 21.042 17.715C20.6431 18.1074 20.1762 18.424 19.664 18.6494C18.5896 19.0909 17.3844 19.0909 16.31 18.6494C15.7978 18.424 15.3309 18.1074 14.932 17.715C14.5384 17.3221 14.2289 16.8549 14.022 16.3386ZM26.086 24.9609C26.086 24.9089 26.06 24.8829 26.06 24.8309C25.8043 24.0174 25.4274 23.2472 24.942 22.5461C24.4562 21.8399 23.8591 21.217 23.174 20.7017C22.6508 20.3081 22.0837 19.9766 21.484 19.7137C21.7568 19.5338 22.0096 19.3251 22.238 19.0914C22.6256 18.7087 22.9661 18.281 23.252 17.8174C23.8278 16.8713 24.1252 15.782 24.11 14.6746C24.118 13.8548 23.9588 13.042 23.642 12.2859C23.3292 11.5573 22.879 10.8958 22.316 10.3375C21.7538 9.78505 21.0922 9.34396 20.366 9.0375C19.6086 8.72126 18.7947 8.56258 17.974 8.57113C17.1532 8.5631 16.3393 8.72233 15.582 9.03912C14.8495 9.34493 14.1863 9.79538 13.632 10.3635C13.0796 10.9251 12.6385 11.5862 12.332 12.3119C12.0152 13.068 11.856 13.8808 11.864 14.7006C11.864 15.2726 11.942 15.8186 12.098 16.337C12.254 16.883 12.462 17.377 12.748 17.8434C13.008 18.3114 13.372 18.7274 13.762 19.1174C13.996 19.3514 14.256 19.5577 14.542 19.7397C13.9405 20.0096 13.3732 20.35 12.852 20.7537C12.176 21.2738 11.578 21.8961 11.084 22.5721C10.5937 23.2703 10.2164 24.0413 9.966 24.8569C9.94 24.9089 9.94 24.9609 9.94 24.9869C7.886 22.9085 6.612 20.1038 6.612 16.987C6.612 10.7275 11.734 5.61038 18 5.61038C24.266 5.61038 29.388 10.7275 29.388 16.987C29.3846 19.9769 28.1974 22.8439 26.086 24.9609Z" fill="#97FEED"/>
</svg>
