<svg width="26" height="25" viewBox="0 0 26 25" fill="none" xmlns="http://www.w3.org/2000/svg">
<path d="M24 12.4895C24 6.69875 19.296 2 13.5 2C7.704 2 3 6.69875 3 12.4895C3 15.6789 4.449 18.5532 6.717 20.4826C6.738 20.5036 6.759 20.5036 6.759 20.5246C6.948 20.6716 7.137 20.8186 7.347 20.9656C7.452 21.0286 7.536 21.1113 7.641 21.1953C9.37621 22.3718 11.4246 23.0005 13.521 23C15.6174 23.0005 17.6658 22.3718 19.401 21.1953C19.506 21.1323 19.59 21.0496 19.695 20.9853C19.884 20.8396 20.094 20.6926 20.283 20.5456C20.304 20.5246 20.325 20.5246 20.325 20.5036C22.551 18.5519 24 15.6789 24 12.4895ZM13.5 21.6783C11.526 21.6783 9.72 21.0483 8.229 19.9996C8.25 19.8316 8.292 19.6649 8.334 19.4969C8.45913 19.0416 8.64265 18.6044 8.88 18.1963C9.111 17.7972 9.384 17.4403 9.72 17.1252C10.035 16.8103 10.413 16.5176 10.791 16.2866C11.19 16.0556 11.61 15.8876 12.072 15.7616C12.5376 15.6361 13.0178 15.573 13.5 15.5739C14.9315 15.5637 16.3104 16.1128 17.343 17.1043C17.826 17.5873 18.204 18.1543 18.477 18.8039C18.624 19.1819 18.729 19.5809 18.792 19.9996C17.2422 21.0892 15.3945 21.6753 13.5 21.6783ZM10.287 11.9658C10.102 11.5422 10.0089 11.0841 10.014 10.6218C10.014 10.1611 10.098 9.69912 10.287 9.27913C10.476 8.85913 10.728 8.48244 11.043 8.16744C11.358 7.85244 11.736 7.60175 12.156 7.41275C12.576 7.22375 13.038 7.13975 13.5 7.13975C13.983 7.13975 14.424 7.22375 14.844 7.41275C15.264 7.60175 15.642 7.85375 15.957 8.16744C16.272 8.48244 16.524 8.86044 16.713 9.27913C16.902 9.69912 16.986 10.1611 16.986 10.6218C16.986 11.1048 16.902 11.5458 16.713 11.9645C16.5306 12.3783 16.2744 12.7554 15.957 13.0775C15.6348 13.3945 15.2577 13.6502 14.844 13.8322C13.9762 14.1888 13.0028 14.1888 12.135 13.8322C11.7213 13.6502 11.3442 13.3945 11.022 13.0775C10.7041 12.7601 10.4541 12.3828 10.287 11.9658ZM20.031 18.9299C20.031 18.8879 20.01 18.8669 20.01 18.8249C19.8035 18.1679 19.499 17.5458 19.107 16.9796C18.7146 16.4091 18.2323 15.906 17.679 15.4899C17.2564 15.172 16.7983 14.9042 16.314 14.6919C16.5343 14.5465 16.7385 14.378 16.923 14.1892C17.2361 13.8801 17.511 13.5346 17.742 13.1602C18.2071 12.3961 18.4473 11.5163 18.435 10.6218C18.4415 9.95968 18.3129 9.30317 18.057 8.69244C17.8044 8.10396 17.4407 7.56967 16.986 7.11875C16.5319 6.67254 15.9975 6.31627 15.411 6.06875C14.7993 5.81333 14.1419 5.68516 13.479 5.69206C12.816 5.68558 12.1587 5.81419 11.547 6.07006C10.9554 6.31706 10.4197 6.68088 9.972 7.13975C9.5258 7.59333 9.16953 8.1273 8.922 8.71344C8.66613 9.32417 8.53751 9.98068 8.544 10.6428C8.544 11.1048 8.607 11.5458 8.733 11.9645C8.859 12.4055 9.027 12.8045 9.258 13.1812C9.468 13.5592 9.762 13.8952 10.077 14.2102C10.266 14.3992 10.476 14.5659 10.707 14.7129C10.2212 14.9308 9.76294 15.2058 9.342 15.5319C8.796 15.9519 8.313 16.4546 7.914 17.0006C7.51796 17.5645 7.21323 18.1872 7.011 18.8459C6.99 18.8879 6.99 18.9299 6.99 18.9509C5.331 17.2723 4.302 15.0069 4.302 12.4895C4.302 7.43375 8.439 3.30069 13.5 3.30069C18.561 3.30069 22.698 7.43375 22.698 12.4895C22.6953 14.9044 21.7364 17.22 20.031 18.9299Z" fill="white"/>
</svg>
