<svg width="96" height="123" viewBox="0 0 96 123" fill="none" xmlns="http://www.w3.org/2000/svg">
<g filter="url(#filter0_dddd_3248_5701)">
<rect x="17" y="3" width="62" height="62" rx="11" fill="#0059C2"/>
<path d="M48.5 33.7973C51.0666 33.7973 53.274 31.5055 53.274 28.5211C53.274 25.5728 51.0546 23.3887 48.5 23.3887C45.9454 23.3887 43.7252 25.621 43.7252 28.5452C43.7252 31.5055 45.9334 33.7973 48.5 33.7973ZM34.7613 34.0714C36.9816 34.0714 38.9158 32.0664 38.9158 29.4765C38.9158 26.9099 36.9696 25.0119 34.7613 25.0119C32.5411 25.0119 30.5836 26.9573 30.5956 29.4998C30.5956 32.0664 32.529 34.0722 34.7613 34.0722M62.2387 34.0722C64.471 34.0722 66.4044 32.0672 66.4044 29.5006C66.4044 26.9581 64.4589 25.0127 62.2387 25.0127C60.0304 25.0127 58.0842 26.9107 58.0842 29.4765C58.0842 32.0672 60.0184 34.0722 62.2387 34.0722ZM28.1005 44.8505H37.1729C35.9313 43.048 37.4469 39.4191 40.0135 37.4375C38.6876 36.5544 36.9816 35.8979 34.7501 35.8979C29.3654 35.8979 26 39.8723 26 43.179C26 44.2534 26.5971 44.8505 28.1005 44.8505ZM68.8995 44.8505C70.415 44.8505 71 44.2534 71 43.179C71 39.8723 67.6338 35.8979 62.2507 35.8979C60.0184 35.8979 58.3116 36.5544 56.9873 37.4375C59.5531 39.4191 61.0695 43.048 59.8279 44.8505H68.8995ZM40.9914 44.8505H55.9957C57.8696 44.8505 58.5382 44.3129 58.5382 43.2626C58.5382 40.1833 54.6827 35.934 48.4879 35.934C42.3053 35.934 38.4497 40.1833 38.4497 43.2626C38.4497 44.3129 39.1175 44.8505 40.9914 44.8505Z" fill="white"/>
</g>
<defs>
<filter id="filter0_dddd_3248_5701" x="0" y="0" width="96" height="123" filterUnits="userSpaceOnUse" color-interpolation-filters="sRGB">
<feFlood flood-opacity="0" result="BackgroundImageFix"/>
<feColorMatrix in="SourceAlpha" type="matrix" values="0 0 0 0 0 0 0 0 0 0 0 0 0 0 0 0 0 0 127 0" result="hardAlpha"/>
<feOffset dy="3"/>
<feGaussianBlur stdDeviation="3"/>
<feColorMatrix type="matrix" values="0 0 0 0 0 0 0 0 0 0 0 0 0 0 0 0 0 0 0.2 0"/>
<feBlend mode="normal" in2="BackgroundImageFix" result="effect1_dropShadow_3248_5701"/>
<feColorMatrix in="SourceAlpha" type="matrix" values="0 0 0 0 0 0 0 0 0 0 0 0 0 0 0 0 0 0 127 0" result="hardAlpha"/>
<feOffset dy="10"/>
<feGaussianBlur stdDeviation="5"/>
<feColorMatrix type="matrix" values="0 0 0 0 0 0 0 0 0 0 0 0 0 0 0 0 0 0 0.17 0"/>
<feBlend mode="normal" in2="effect1_dropShadow_3248_5701" result="effect2_dropShadow_3248_5701"/>
<feColorMatrix in="SourceAlpha" type="matrix" values="0 0 0 0 0 0 0 0 0 0 0 0 0 0 0 0 0 0 127 0" result="hardAlpha"/>
<feOffset dy="23"/>
<feGaussianBlur stdDeviation="7"/>
<feColorMatrix type="matrix" values="0 0 0 0 0 0 0 0 0 0 0 0 0 0 0 0 0 0 0.1 0"/>
<feBlend mode="normal" in2="effect2_dropShadow_3248_5701" result="effect3_dropShadow_3248_5701"/>
<feColorMatrix in="SourceAlpha" type="matrix" values="0 0 0 0 0 0 0 0 0 0 0 0 0 0 0 0 0 0 127 0" result="hardAlpha"/>
<feOffset dy="41"/>
<feGaussianBlur stdDeviation="8.5"/>
<feColorMatrix type="matrix" values="0 0 0 0 0 0 0 0 0 0 0 0 0 0 0 0 0 0 0.03 0"/>
<feBlend mode="normal" in2="effect3_dropShadow_3248_5701" result="effect4_dropShadow_3248_5701"/>
<feBlend mode="normal" in="SourceGraphic" in2="effect4_dropShadow_3248_5701" result="shape"/>
</filter>
</defs>
</svg>
