<svg width="50" height="50" viewBox="0 0 50 50" fill="none" xmlns="http://www.w3.org/2000/svg">
<rect width="50" height="50" rx="25" fill="#070A52"/>
<path d="M14.5743 19.7613C15.545 17.8285 17.0341 16.2036 18.8752 15.0684C20.7162 13.9332 22.8367 13.3323 24.9997 13.333C28.1438 13.333 30.7852 14.4892 32.8047 16.3722L29.4598 19.7182C28.25 18.562 26.7123 17.9728 24.9997 17.9728C21.9605 17.9728 19.388 20.0262 18.4722 22.783C18.2388 23.483 18.1058 24.2297 18.1058 24.9997C18.1058 25.7697 18.2388 26.5163 18.4722 27.2163C19.3892 29.9743 21.9605 32.0265 24.9997 32.0265C26.5688 32.0265 27.9047 31.6123 28.95 30.9123C29.556 30.5133 30.0748 29.9956 30.4751 29.3904C30.8753 28.7852 31.1487 28.1052 31.2787 27.3913H24.9997V22.8787H35.9873C36.125 23.6417 36.1997 24.4373 36.1997 25.2645C36.1997 28.8182 34.928 31.8095 32.7207 33.8395C30.791 35.6222 28.1497 36.6663 24.9997 36.6663C23.4674 36.667 21.9501 36.3656 20.5343 35.7795C19.1186 35.1934 17.8322 34.3341 16.7487 33.2506C15.6653 32.1671 14.8059 30.8808 14.2198 29.465C13.6337 28.0493 13.3324 26.5319 13.333 24.9997C13.333 23.1167 13.7833 21.3363 14.5743 19.7613Z" fill="white"/>
</svg>
