<svg width="50" height="50" viewBox="0 0 50 50" fill="none" xmlns="http://www.w3.org/2000/svg">
<rect width="50" height="50" rx="25" fill="#FF6868"/>
<g clip-path="url(#clip0_3270_816)">
<path d="M19.7955 37.2502C30.362 37.2502 36.1423 28.495 36.1423 20.9157C36.1446 20.6696 36.1411 20.4234 36.1318 20.1772C37.2567 19.3622 38.2279 18.3537 39 17.1987C37.9484 17.6612 36.8346 17.9666 35.6943 18.1052C36.8958 17.3872 37.7957 16.2573 38.2265 14.9255C37.0982 15.5952 35.8626 16.0648 34.5742 16.3132C33.7083 15.391 32.5625 14.7801 31.3141 14.5751C30.0658 14.37 28.7848 14.5823 27.6693 15.1791C26.5539 15.7759 25.6664 16.7238 25.1443 17.8761C24.6222 19.0283 24.4946 20.3206 24.7812 21.5527C22.4969 21.4387 20.2621 20.8456 18.222 19.8118C16.1818 18.778 14.3818 17.3266 12.939 15.552C12.2068 16.8175 11.9834 18.3142 12.3143 19.7383C12.6451 21.1625 13.5054 22.4074 14.7205 23.2205C13.8095 23.191 12.9183 22.9464 12.12 22.5065V22.5852C12.1222 23.9107 12.5817 25.1947 13.4208 26.2207C14.2599 27.2466 15.4274 27.9517 16.726 28.2167C16.233 28.3526 15.7237 28.4203 15.2123 28.418C14.8516 28.4217 14.4915 28.3883 14.1377 28.3182C14.5042 29.4598 15.2189 30.4579 16.1815 31.1725C17.1441 31.8872 18.3063 32.2825 19.505 32.303C17.4682 33.9007 14.9537 34.7678 12.365 34.7652C11.9088 34.7687 11.4528 34.7424 11 34.6865C13.6275 36.3621 16.6792 37.2516 19.7955 37.2502Z" fill="white"/>
</g>
<defs>
<clipPath id="clip0_3270_816">
<rect width="28" height="28" fill="white" transform="translate(11 11)"/>
</clipPath>
</defs>
</svg>
