<svg width="50" height="50" viewBox="0 0 50 50" fill="none" xmlns="http://www.w3.org/2000/svg">
<path d="M25 12C32.1799 12 38 17.8201 38 25C38 32.1799 32.1799 38 25 38C22.7873 38.0032 20.6108 37.4393 18.6781 36.362L18.2816 36.1306L14.34 37.2902C14.1255 37.3534 13.8984 37.3608 13.6803 37.3116C13.4621 37.2625 13.2602 37.1584 13.0935 37.0093C12.9268 36.8602 12.801 36.6711 12.7279 36.4597C12.6549 36.2484 12.637 36.0219 12.676 35.8017L12.7098 35.66L13.8694 31.7184C12.6435 29.6921 11.9969 27.3683 12 25C12 17.8201 17.8201 12 25 12ZM25 14.6C23.1379 14.5997 21.3099 15.0993 19.7068 16.0467C18.1038 16.994 16.7845 18.3545 15.8867 19.9858C14.9889 21.6172 14.5456 23.4597 14.6031 25.3209C14.6605 27.1821 15.2166 28.9937 16.2133 30.5666C16.4707 30.9722 16.5812 31.4714 16.4941 31.9667L16.4434 32.1786L15.8701 34.1299L17.8214 33.5566C18.3843 33.3902 18.9693 33.4916 19.4334 33.7867C20.7962 34.6496 22.3411 35.1837 23.9459 35.3467C25.5507 35.5098 27.1714 35.2973 28.6799 34.726C30.1884 34.1548 31.5434 33.2405 32.6377 32.0555C33.732 30.8704 34.5357 29.447 34.9851 27.8978C35.4346 26.3487 35.5175 24.7162 35.2274 23.1294C34.9373 21.5427 34.2821 20.0452 33.3135 18.7553C32.3449 17.4654 31.0896 16.4185 29.6467 15.6973C28.2039 14.9761 26.6131 14.6005 25 14.6ZM21.2326 18.7392C21.3765 18.6769 21.5342 18.6531 21.6901 18.6702C21.846 18.6873 21.9948 18.7447 22.1218 18.8367C22.777 19.3151 23.297 19.9573 23.7442 20.5839L24.1693 21.2001L24.3682 21.4926C24.483 21.6604 24.5393 21.8613 24.5285 22.0643C24.5177 22.2673 24.4403 22.4611 24.3084 22.6158L24.2109 22.7146L23.0097 23.6064C22.9519 23.6483 22.9112 23.7096 22.8952 23.7792C22.8792 23.8488 22.8889 23.9218 22.9226 23.9847C23.1956 24.4787 23.6779 25.2158 24.2317 25.7696C24.7868 26.3234 25.5577 26.8382 26.0855 27.1411C26.1999 27.2061 26.3377 27.1853 26.4313 27.1008L26.4807 27.0423L27.262 25.8528C27.4054 25.6617 27.6173 25.5336 27.8531 25.4953C28.0889 25.457 28.3304 25.5115 28.5269 25.6474L29.2328 26.1401C29.9348 26.6406 30.6095 27.1788 31.1438 27.8613C31.2432 27.9893 31.3063 28.1417 31.3267 28.3024C31.347 28.4632 31.3238 28.6265 31.2595 28.7752C30.7447 29.9764 29.4408 30.9995 28.0862 30.9501L27.8795 30.9371L27.6312 30.9137C27.5843 30.9081 27.5375 30.9021 27.4908 30.8955L27.1814 30.8435C25.9802 30.6173 24.0549 29.9361 22.0594 27.9419C20.0652 25.9464 19.384 24.0211 19.1578 22.8199L19.1058 22.5105L19.0733 22.2401L19.0564 22.0126C19.0543 21.9801 19.0526 21.9476 19.0512 21.9151C19.0018 20.5579 20.0301 19.254 21.2326 18.7392Z" fill="#FF6868"/>
</svg>
