<svg width="50" height="50" viewBox="0 0 50 50" fill="none" xmlns="http://www.w3.org/2000/svg">
<path d="M26.1987 13.333C27.5112 13.3365 28.1774 13.3435 28.7525 13.3598L28.9789 13.368C29.2402 13.3773 29.498 13.389 29.8095 13.403C31.0509 13.4613 31.8979 13.6573 32.641 13.9455C33.411 14.2418 34.0597 14.6432 34.7084 15.2907C35.3016 15.8739 35.7607 16.5794 36.0535 17.358C36.3417 18.1012 36.5377 18.9482 36.596 20.1907C36.61 20.501 36.6217 20.7588 36.631 21.0213L36.638 21.2477C36.6555 21.8217 36.6625 22.4878 36.6649 23.8003L36.666 24.6707V26.199C36.6689 27.05 36.66 27.901 36.6392 28.7517L36.6322 28.978C36.6229 29.2405 36.6112 29.4983 36.5972 29.8087C36.5389 31.0512 36.3405 31.897 36.0535 32.6413C35.7615 33.4204 35.3023 34.1261 34.7084 34.7087C34.125 35.3017 33.4196 35.7607 32.641 36.0538C31.8979 36.342 31.0509 36.538 29.8095 36.5963C29.5327 36.6094 29.2558 36.621 28.9789 36.6313L28.7525 36.6383C28.1774 36.6547 27.5112 36.6628 26.1987 36.6652L25.3284 36.6663H23.8012C22.9498 36.6693 22.0985 36.6603 21.2474 36.6395L21.021 36.6325C20.7441 36.622 20.4672 36.61 20.1904 36.5963C18.949 36.538 18.102 36.342 17.3577 36.0538C16.5792 35.7614 15.874 35.3023 15.2915 34.7087C14.6978 34.1257 14.2383 33.4202 13.9452 32.6413C13.657 31.8982 13.461 31.0512 13.4027 29.8087C13.3897 29.5318 13.378 29.255 13.3677 28.978L13.3619 28.7517C13.3404 27.901 13.3306 27.05 13.3327 26.199V23.8003C13.3294 22.9494 13.338 22.0984 13.3584 21.2477L13.3665 21.0213C13.3759 20.7588 13.3875 20.501 13.4015 20.1907C13.4599 18.9482 13.6559 18.1023 13.944 17.358C14.237 16.5786 14.6974 15.8729 15.2927 15.2907C15.875 14.6974 16.5797 14.2383 17.3577 13.9455C18.102 13.6573 18.9479 13.4613 20.1904 13.403C20.5007 13.389 20.7597 13.3773 21.021 13.368L21.2474 13.361C22.0981 13.3403 22.9491 13.3313 23.8 13.3342L26.1987 13.333ZM24.9994 19.1663C23.4523 19.1663 21.9685 19.7809 20.8746 20.8749C19.7806 21.9688 19.166 23.4526 19.166 24.9997C19.166 26.5468 19.7806 28.0305 20.8746 29.1245C21.9685 30.2184 23.4523 30.833 24.9994 30.833C26.5465 30.833 28.0302 30.2184 29.1242 29.1245C30.2181 28.0305 30.8327 26.5468 30.8327 24.9997C30.8327 23.4526 30.2181 21.9688 29.1242 20.8749C28.0302 19.7809 26.5465 19.1663 24.9994 19.1663ZM24.9994 21.4997C25.459 21.4996 25.9141 21.5901 26.3388 21.7659C26.7635 21.9417 27.1494 22.1994 27.4744 22.5244C27.7995 22.8493 28.0573 23.2351 28.2333 23.6597C28.4093 24.0844 28.4999 24.5395 28.5 24.9991C28.5 25.4587 28.4096 25.9139 28.2338 26.3385C28.0579 26.7632 27.8002 27.1491 27.4752 27.4741C27.1503 27.7992 26.7645 28.0571 26.3399 28.233C25.9153 28.409 25.4602 28.4996 25.0005 28.4997C24.0723 28.4997 23.182 28.1309 22.5257 27.4745C21.8693 26.8182 21.5005 25.9279 21.5005 24.9997C21.5005 24.0714 21.8693 23.1812 22.5257 22.5248C23.182 21.8684 24.0723 21.4997 25.0005 21.4997M31.1255 17.4163C30.7388 17.4163 30.3678 17.57 30.0943 17.8435C29.8209 18.117 29.6672 18.4879 29.6672 18.8747C29.6672 19.2614 29.8209 19.6324 30.0943 19.9059C30.3678 20.1794 30.7388 20.333 31.1255 20.333C31.5123 20.333 31.8832 20.1794 32.1567 19.9059C32.4302 19.6324 32.5839 19.2614 32.5839 18.8747C32.5839 18.4879 32.4302 18.117 32.1567 17.8435C31.8832 17.57 31.5123 17.4163 31.1255 17.4163Z" fill="#FF6868"/>
</svg>
