<svg width="50" height="50" viewBox="0 0 50 50" fill="none" xmlns="http://www.w3.org/2000/svg">
<g clip-path="url(#clip0_3149_295)">
<path d="M19.7955 37.25C30.362 37.25 36.1423 28.4947 36.1423 20.9155C36.1446 20.6693 36.1411 20.4232 36.1318 20.177C37.2567 19.3619 38.2279 18.3534 39 17.1985C37.9484 17.661 36.8346 17.9664 35.6943 18.105C36.8958 17.387 37.7957 16.257 38.2265 14.9252C37.0982 15.595 35.8626 16.0645 34.5742 16.313C33.7083 15.3908 32.5625 14.7798 31.3141 14.5748C30.0658 14.3698 28.7848 14.5821 27.6693 15.1789C26.5539 15.7757 25.6664 16.7236 25.1443 17.8758C24.6222 19.0281 24.4946 20.3204 24.7812 21.5525C22.4969 21.4385 20.2621 20.8453 18.222 19.8115C16.1818 18.7777 14.3818 17.3264 12.939 15.5517C12.2068 16.8172 11.9834 18.3139 12.3143 19.7381C12.6451 21.1622 13.5054 22.4071 14.7205 23.2202C13.8095 23.1908 12.9183 22.9461 12.12 22.5062V22.585C12.1222 23.9104 12.5817 25.1945 13.4208 26.2204C14.2599 27.2464 15.4274 27.9514 16.726 28.2165C16.233 28.3524 15.7237 28.4201 15.2123 28.4177C14.8516 28.4215 14.4915 28.3881 14.1377 28.318C14.5042 29.4595 15.2189 30.4576 16.1815 31.1723C17.1441 31.887 18.3063 32.2823 19.505 32.3027C17.4682 33.9004 14.9537 34.7676 12.365 34.765C11.9088 34.7684 11.4528 34.7421 11 34.6862C13.6275 36.3618 16.6792 37.2513 19.7955 37.25Z" fill="#FF6868"/>
</g>
<defs>
<clipPath id="clip0_3149_295">
<rect width="28" height="28" fill="white" transform="translate(11 11)"/>
</clipPath>
</defs>
</svg>
