<svg width="50" height="50" viewBox="0 0 50 50" fill="none" xmlns="http://www.w3.org/2000/svg">
<rect width="50" height="50" rx="25" fill="#071952"/>
<path d="M26.1997 13.333C27.5122 13.3365 28.1783 13.3435 28.7535 13.3598L28.9798 13.368C29.2412 13.3773 29.499 13.389 29.8105 13.403C31.0518 13.4613 31.8988 13.6573 32.642 13.9455C33.412 14.2418 34.0607 14.6432 34.7094 15.2907C35.3026 15.8739 35.7616 16.5794 36.0545 17.358C36.3427 18.1012 36.5387 18.9482 36.597 20.1907C36.611 20.501 36.6227 20.7588 36.632 21.0213L36.639 21.2477C36.6565 21.8217 36.6635 22.4878 36.6659 23.8003L36.667 24.6707V26.199C36.6699 27.05 36.6609 27.901 36.6402 28.7517L36.6332 28.978C36.6239 29.2405 36.6122 29.4983 36.5982 29.8087C36.5399 31.0512 36.3415 31.897 36.0545 32.6413C35.7625 33.4204 35.3033 34.1261 34.7094 34.7087C34.126 35.3017 33.4205 35.7607 32.642 36.0538C31.8988 36.342 31.0518 36.538 29.8105 36.5963C29.5337 36.6094 29.2568 36.621 28.9798 36.6313L28.7535 36.6383C28.1783 36.6547 27.5122 36.6628 26.1997 36.6652L25.3293 36.6663H23.8022C22.9508 36.6693 22.0995 36.6603 21.2483 36.6395L21.022 36.6325C20.7451 36.622 20.4682 36.61 20.1913 36.5963C18.95 36.538 18.103 36.342 17.3587 36.0538C16.5801 35.7614 15.8749 35.3023 15.2925 34.7087C14.6987 34.1257 14.2393 33.4202 13.9462 32.6413C13.658 31.8982 13.462 31.0512 13.4037 29.8087C13.3907 29.5318 13.379 29.255 13.3687 28.978L13.3628 28.7517C13.3413 27.901 13.3316 27.05 13.3337 26.199V23.8003C13.3304 22.9494 13.339 22.0984 13.3593 21.2477L13.3675 21.0213C13.3768 20.7588 13.3885 20.501 13.4025 20.1907C13.4608 18.9482 13.6568 18.1023 13.945 17.358C14.238 16.5786 14.6984 15.8729 15.2937 15.2907C15.876 14.6974 16.5807 14.2383 17.3587 13.9455C18.103 13.6573 18.9488 13.4613 20.1913 13.403C20.5017 13.389 20.7607 13.3773 21.022 13.368L21.2483 13.361C22.0991 13.3403 22.95 13.3313 23.801 13.3342L26.1997 13.333ZM25.0003 19.1663C23.4533 19.1663 21.9695 19.7809 20.8756 20.8749C19.7816 21.9688 19.167 23.4526 19.167 24.9997C19.167 26.5468 19.7816 28.0305 20.8756 29.1245C21.9695 30.2184 23.4533 30.833 25.0003 30.833C26.5474 30.833 28.0312 30.2184 29.1251 29.1245C30.2191 28.0305 30.8337 26.5468 30.8337 24.9997C30.8337 23.4526 30.2191 21.9688 29.1251 20.8749C28.0312 19.7809 26.5474 19.1663 25.0003 19.1663ZM25.0003 21.4997C25.46 21.4996 25.9151 21.5901 26.3398 21.7659C26.7645 21.9417 27.1503 22.1994 27.4754 22.5244C27.8005 22.8493 28.0583 23.2351 28.2343 23.6597C28.4102 24.0844 28.5009 24.5395 28.5009 24.9991C28.501 25.4587 28.4106 25.9139 28.2347 26.3385C28.0589 26.7632 27.8012 27.1491 27.4762 27.4741C27.1513 27.7992 26.7655 28.0571 26.3409 28.233C25.9163 28.409 25.4611 28.4996 25.0015 28.4997C24.0733 28.4997 23.183 28.1309 22.5266 27.4745C21.8703 26.8182 21.5015 25.9279 21.5015 24.9997C21.5015 24.0714 21.8703 23.1812 22.5266 22.5248C23.183 21.8684 24.0733 21.4997 25.0015 21.4997M31.1265 17.4163C30.7397 17.4163 30.3688 17.57 30.0953 17.8435C29.8218 18.117 29.6682 18.4879 29.6682 18.8747C29.6682 19.2614 29.8218 19.6324 30.0953 19.9059C30.3688 20.1794 30.7397 20.333 31.1265 20.333C31.5133 20.333 31.8842 20.1794 32.1577 19.9059C32.4312 19.6324 32.5849 19.2614 32.5849 18.8747C32.5849 18.4879 32.4312 18.117 32.1577 17.8435C31.8842 17.57 31.5133 17.4163 31.1265 17.4163Z" fill="white"/>
</svg>
