<svg width="50" height="50" viewBox="0 0 50 50" fill="none" xmlns="http://www.w3.org/2000/svg">
<rect width="50" height="50" rx="25" fill="#FF6868"/>
<path d="M14.5734 19.7613C15.544 17.8285 17.0331 16.2036 18.8742 15.0684C20.7153 13.9332 22.8358 13.3323 24.9987 13.333C28.1429 13.333 30.7842 14.4892 32.8037 16.3722L29.4589 19.7182C28.249 18.562 26.7114 17.9728 24.9987 17.9728C21.9595 17.9728 19.387 20.0262 18.4712 22.783C18.2379 23.483 18.1049 24.2297 18.1049 24.9997C18.1049 25.7697 18.2379 26.5163 18.4712 27.2163C19.3882 29.9743 21.9595 32.0265 24.9987 32.0265C26.5679 32.0265 27.9037 31.6123 28.949 30.9123C29.555 30.5133 30.0739 29.9956 30.4741 29.3904C30.8743 28.7852 31.1477 28.1052 31.2777 27.3913H24.9987V22.8787H35.9864C36.124 23.6417 36.1987 24.4373 36.1987 25.2645C36.1987 28.8182 34.927 31.8095 32.7197 33.8395C30.79 35.6222 28.1487 36.6663 24.9987 36.6663C23.4664 36.667 21.9491 36.3656 20.5333 35.7795C19.1176 35.1934 17.8312 34.3341 16.7478 33.2506C15.6643 32.1671 14.8049 30.8808 14.2189 29.465C13.6328 28.0493 13.3314 26.5319 13.332 24.9997C13.332 23.1167 13.7824 21.3363 14.5734 19.7613Z" fill="white"/>
</svg>
