<svg width="54" height="9" viewBox="0 0 54 9" fill="none" xmlns="http://www.w3.org/2000/svg">
<path d="M0.257812 0.153015H2.51781L5.77881 4.487L5.46681 0.153015H7.7478L8.31181 7.98599H6.02982L2.7868 3.685L3.0968 7.98599H0.820816L0.257812 0.153015Z" fill="#FF6868"/>
<path d="M9.33329 4.07401C9.24129 2.79501 9.52529 1.80001 10.1873 1.08701C10.8483 0.375006 11.8153 0.0180054 13.0863 0.0180054C14.3903 0.0180054 15.4193 0.367993 16.1753 1.06799C16.9313 1.76799 17.3543 2.748 17.4453 4.009C17.5113 4.924 17.4113 5.67499 17.1453 6.26099C16.8793 6.84699 16.4673 7.303 15.9083 7.629C15.3493 7.955 14.6353 8.11801 13.7663 8.11801C12.8833 8.11801 12.1413 7.97701 11.5423 7.69601C10.9433 7.41501 10.4423 6.96899 10.0383 6.35999C9.63429 5.75199 9.39929 4.99001 9.33329 4.07401ZM11.7543 4.08499C11.8113 4.87599 11.9993 5.444 12.3173 5.789C12.6363 6.135 13.0483 6.30701 13.5543 6.30701C14.0743 6.30701 14.4643 6.13801 14.7253 5.79901C14.9863 5.46101 15.0843 4.85299 15.0213 3.97699C14.9683 3.23999 14.7803 2.70099 14.4583 2.36099C14.1363 2.02099 13.7203 1.85101 13.2113 1.85101C12.7233 1.85101 12.3443 2.02399 12.0733 2.36899C11.8033 2.71599 11.6973 3.28699 11.7543 4.08499Z" fill="#FF6868"/>
<path d="M22.1523 0.153015H25.7484C26.4574 0.153015 27.0364 0.24901 27.4874 0.44101C27.9374 0.63301 28.3183 0.909012 28.6293 1.26901C28.9403 1.62901 29.1774 2.04699 29.3394 2.52499C29.5024 3.00199 29.6024 3.50799 29.6414 4.04199C29.7014 4.87899 29.6533 5.52799 29.4953 5.98999C29.3383 6.45099 29.1014 6.83799 28.7854 7.14899C28.4694 7.46099 28.1214 7.668 27.7404 7.771C27.2204 7.914 26.7444 7.98499 26.3134 7.98499H22.7173L22.1523 0.153015ZM24.7003 1.927L25.0083 6.207H25.6013C26.1073 6.207 26.4624 6.151 26.6684 6.039C26.8744 5.927 27.0274 5.73099 27.1284 5.45099C27.2294 5.17099 27.2574 4.718 27.2124 4.091C27.1524 3.261 26.9763 2.69299 26.6833 2.38699C26.3903 2.08099 25.9303 1.92801 25.3033 1.92801H24.7003V1.927Z" fill="#FF6868"/>
<path d="M35.4494 6.69196H32.7014L32.4124 7.98495H29.9414L32.3214 0.151978H34.9614L38.4684 7.98495H35.9334L35.4494 6.69196ZM34.8254 4.99896L33.7574 2.18298L33.1044 4.99896H34.8254Z" fill="#FF6868"/>
<path d="M37.3711 0.153015H44.7281L44.8671 2.08701H42.3991L42.8241 7.98599H40.4041L39.9791 2.08701H37.5111L37.3711 0.153015Z" fill="#FF6868"/>
<path d="M50.3674 6.69196H47.6194L47.3304 7.98495H44.8594L47.2394 0.151978H49.8794L53.3864 7.98495H50.8514L50.3674 6.69196ZM49.7434 4.99896L48.6764 2.18298L48.0234 4.99896H49.7434Z" fill="#FF6868"/>
</svg>
