<svg width="44" height="55" viewBox="0 0 44 55" fill="none" xmlns="http://www.w3.org/2000/svg">
<path d="M42.5322 53.798L39.1972 7.47902L29.0892 1.39502H1.28516L5.05916 53.798H42.5322Z" fill="white"/>
<path d="M42.5321 54.283H5.05911C4.80511 54.283 4.59411 54.087 4.57611 53.833L0.802105 1.43001C0.792105 1.29601 0.839103 1.16302 0.931103 1.06502C1.0231 0.966018 1.1511 0.911011 1.2861 0.911011H29.0901C29.1781 0.911011 29.2651 0.935018 29.3401 0.981018L39.4471 7.06401C39.5821 7.14501 39.6691 7.28702 39.6801 7.44402L43.0151 53.763C43.0251 53.897 42.9781 54.03 42.8861 54.128C42.7951 54.227 42.6661 54.283 42.5321 54.283ZM5.5101 53.314H42.0111L38.7311 7.76501L28.9551 1.88002H1.8061L5.5101 53.314Z" fill="#FF6868"/>
<path d="M39.1978 7.47902L29.0898 1.39502L32.8008 9.45502L39.1978 7.47902Z" fill="#FFEAA7"/>
<path d="M32.801 9.93899C32.616 9.93899 32.442 9.83199 32.361 9.65699L28.65 1.598C28.561 1.405 28.608 1.17599 28.767 1.03399C28.925 0.891989 29.158 0.870989 29.34 0.979989L39.447 7.06399C39.611 7.16199 39.701 7.34799 39.678 7.53799C39.655 7.72799 39.523 7.88599 39.34 7.94199L32.944 9.91799C32.897 9.93199 32.849 9.93899 32.801 9.93899ZM30.189 2.62199L33.064 8.86599L38.02 7.335L30.189 2.62199Z" fill="#FFBB64"/>
<path d="M16.97 25.005C17.054 26.174 16.175 27.122 15.005 27.122C13.835 27.122 12.82 26.174 12.736 25.005C12.652 23.836 13.531 22.888 14.7 22.888C15.869 22.888 16.886 23.836 16.97 25.005Z" fill="#FF6868"/>
<path d="M30.7054 25.005C30.7894 26.174 29.9104 27.122 28.7404 27.122C27.5714 27.122 26.5554 26.174 26.4704 25.005C26.3864 23.836 27.2654 22.888 28.4354 22.888C29.6054 22.889 30.6214 23.836 30.7054 25.005Z" fill="#FF6868"/>
<path d="M34.5803 38.735C34.3283 38.735 34.1163 38.54 34.0973 38.285C33.8523 34.881 28.5143 32.112 22.1973 32.112C18.0123 32.112 14.2553 33.356 12.3913 35.359C11.5623 36.25 11.1793 37.21 11.2513 38.215C11.2703 38.482 11.0693 38.714 10.8023 38.733C10.5343 38.75 10.3033 38.551 10.2843 38.284C10.1933 37.018 10.6763 35.778 11.6813 34.698C13.7223 32.504 17.7513 31.142 22.1973 31.142C29.1263 31.142 34.7783 34.249 35.0643 38.214C35.0833 38.481 34.8823 38.713 34.6153 38.732C34.6033 38.735 34.5913 38.735 34.5803 38.735Z" fill="#FF6868"/>
<path d="M9.1687 20.717C9.0507 20.717 8.9327 20.674 8.8387 20.588C8.6427 20.406 8.6307 20.099 8.8127 19.903L10.9367 17.615C11.1187 17.418 11.4257 17.408 11.6217 17.589C11.8177 17.771 11.8287 18.078 11.6477 18.274L9.52469 20.562C9.42869 20.665 9.2987 20.717 9.1687 20.717Z" fill="#FF6868"/>
<path d="M33.5865 20.717C33.4685 20.717 33.3495 20.674 33.2555 20.587L30.8025 18.299C30.6065 18.117 30.5965 17.81 30.7785 17.614C30.9605 17.418 31.2675 17.408 31.4635 17.59L33.9165 19.878C34.1125 20.06 34.1225 20.367 33.9405 20.563C33.8455 20.665 33.7165 20.717 33.5865 20.717Z" fill="#FF6868"/>
</svg>
