<svg width="24" height="25" viewBox="0 0 24 25" fill="none" xmlns="http://www.w3.org/2000/svg">
<path fill-rule="evenodd" clip-rule="evenodd" d="M13.2171 17.7166C12.9359 17.9975 12.5546 18.1553 12.1571 18.1553C11.7596 18.1553 11.3784 17.9975 11.0971 17.7166L5.43913 12.0606C5.15786 11.7792 4.99991 11.3976 5 10.9998C5.00009 10.6019 5.15823 10.2204 5.43963 9.93913C5.72102 9.65787 6.10262 9.49991 6.50048 9.5C6.89834 9.50009 7.27986 9.65823 7.56113 9.93963L12.1571 14.5356L16.7531 9.93963C17.0359 9.66625 17.4147 9.51488 17.808 9.51811C18.2013 9.52134 18.5776 9.67892 18.8559 9.9569C19.1341 10.2349 19.292 10.611 19.2956 11.0043C19.2993 11.3976 19.1482 11.7766 18.8751 12.0596L13.2181 17.7176L13.2171 17.7166Z" fill="black"/>
</svg>
