<svg width="244" height="165" viewBox="0 0 244 165" fill="none" xmlns="http://www.w3.org/2000/svg">
<path d="M1.10677 51.3603L0.109375 51.4321L1.43689 69.8731L2.43429 69.8013L1.10677 51.3603Z" fill="#407BFF"/>
<path d="M3.13802 79.316L2.14062 79.3879L2.64069 86.3249L3.63809 86.253L3.13802 79.316Z" fill="#407BFF"/>
<path d="M234.711 164.161H20.5533C15.7093 164.161 11.4613 160.198 11.1123 155.354L0.589329 9.22398C0.240329 4.37998 3.91833 0.416992 8.76233 0.416992H222.92C227.764 0.416992 232.012 4.37998 232.361 9.22398L242.884 155.354C243.232 160.198 239.555 164.161 234.711 164.161Z" fill="#407BFF"/>
<path d="M235.532 164.161H21.3736C16.5296 164.161 12.2816 160.198 11.9326 155.354L1.40964 9.22398C1.06064 4.37998 4.73864 0.416992 9.58264 0.416992H223.741C228.585 0.416992 232.833 4.37998 233.182 9.22398L243.705 155.354C244.053 160.198 240.376 164.161 235.532 164.161Z" fill="#FFBB64"/>
<path opacity="0.5" d="M235.532 164.161H21.3736C16.5296 164.161 12.2816 160.198 11.9326 155.354L1.40964 9.22398C1.06064 4.37998 4.73864 0.416992 9.58264 0.416992H223.741C228.585 0.416992 232.833 4.37998 233.182 9.22398L243.705 155.354C244.053 160.198 240.376 164.161 235.532 164.161Z" fill="#FFBB64"/>
<path d="M224.057 4.82098H9.89906C9.65706 4.82098 9.41806 4.83099 9.18206 4.84999C3.70806 5.30099 4.82606 13.628 10.3511 13.628H224.874C230.399 13.628 230.318 5.30099 224.779 4.84999C224.54 4.83099 224.299 4.82098 224.057 4.82098Z" fill="#FF6868"/>
<path d="M15.4769 9.22501C15.5569 10.34 14.7189 11.244 13.6029 11.244C12.4879 11.244 11.5189 10.34 11.4389 9.22501C11.3589 8.11001 12.1969 7.20599 13.3129 7.20599C14.4289 7.20599 15.3969 8.10901 15.4769 9.22501Z" fill="#FAFAFA"/>
<path d="M22.3441 9.22501C22.4241 10.34 21.5861 11.244 20.4701 11.244C19.3551 11.244 18.3861 10.34 18.3061 9.22501C18.2261 8.11001 19.0641 7.20599 20.1801 7.20599C21.2951 7.20599 22.2641 8.10901 22.3441 9.22501Z" fill="#FAFAFA"/>
<path d="M29.2122 9.22501C29.2922 10.34 28.4532 11.244 27.3382 11.244C26.2232 11.244 25.2542 10.34 25.1732 9.22501C25.0932 8.11001 25.9322 7.20599 27.0472 7.20599C28.1622 7.20599 29.1312 8.10901 29.2122 9.22501Z" fill="#FAFAFA"/>
<path d="M229.852 149.577H24.9487C23.1857 149.577 21.6527 148.147 21.5257 146.384L12.8717 26.211C12.7447 24.448 14.0717 23.018 15.8347 23.018H220.738C222.501 23.018 224.034 24.447 224.161 26.211L232.815 146.384C232.942 148.147 231.615 149.577 229.852 149.577Z" fill="white"/>
</svg>
