<svg width="24" height="24" viewBox="0 0 24 24" fill="none" xmlns="http://www.w3.org/2000/svg">
<g clip-path="url(#clip0_2948_195)">
<path fill-rule="evenodd" clip-rule="evenodd" d="M13.2171 23.2166C12.9359 23.4975 12.5546 23.6553 12.1571 23.6553C11.7596 23.6553 11.3784 23.4975 11.0971 23.2166L5.43913 17.5606C5.15786 17.2792 4.99991 16.8976 5 16.4998C5.00009 16.1019 5.15823 15.7204 5.43963 15.4391C5.72102 15.1579 6.10262 14.9999 6.50048 15C6.89834 15.0001 7.27986 15.1582 7.56113 15.4396L12.1571 20.0356L16.7531 15.4396C17.0359 15.1663 17.4147 15.0149 17.808 15.0181C18.2013 15.0213 18.5776 15.1789 18.8559 15.4569C19.1341 15.7349 19.292 16.111 19.2956 16.5043C19.2993 16.8976 19.1482 17.2766 18.8751 17.5596L13.2181 23.2176L13.2171 23.2166Z" fill="white"/>
</g>
<defs>
<clipPath id="clip0_2948_195">
<rect width="24" height="24" fill="white"/>
</clipPath>
</defs>
</svg>
