<svg width="24" height="24" viewBox="0 0 24 24" fill="none" xmlns="http://www.w3.org/2000/svg">
<g clip-path="url(#clip0_3072_44)">
<path fill-rule="evenodd" clip-rule="evenodd" d="M10.94 7.9399C11.2213 7.659 11.6025 7.50122 12 7.50122C12.3975 7.50122 12.7788 7.659 13.06 7.9399L18.718 13.5959C18.8573 13.7352 18.9677 13.9006 19.0431 14.0827C19.1184 14.2647 19.1572 14.4598 19.1571 14.6568C19.1571 14.8538 19.1182 15.0488 19.0428 15.2308C18.9674 15.4128 18.8568 15.5781 18.7175 15.7174C18.5782 15.8567 18.4128 15.9671 18.2307 16.0425C18.0487 16.1178 17.8536 16.1566 17.6566 16.1565C17.4596 16.1565 17.2646 16.1176 17.0826 16.0422C16.9006 15.9668 16.7353 15.8562 16.596 15.7169L12 11.1219L7.404 15.7179C7.2657 15.8612 7.10024 15.9756 6.91727 16.0543C6.7343 16.133 6.53749 16.1744 6.33832 16.1763C6.13915 16.1781 5.94162 16.1402 5.75724 16.0649C5.57286 15.9896 5.40533 15.8783 5.26443 15.7375C5.12352 15.5967 5.01206 15.4293 4.93655 15.245C4.86105 15.0607 4.823 14.8632 4.82464 14.664C4.82627 14.4648 4.86756 14.268 4.94608 14.085C5.02461 13.9019 5.1388 13.7363 5.282 13.5979L10.94 7.9399Z" fill="#071952"/>
</g>
<defs>
<clipPath id="clip0_3072_44">
<rect width="24" height="24" fill="white"/>
</clipPath>
</defs>
</svg>
