<svg width="24" height="24" viewBox="0 0 24 24" fill="none" xmlns="http://www.w3.org/2000/svg">
<g clip-path="url(#clip0_2948_246)">
<path fill-rule="evenodd" clip-rule="evenodd" d="M10.9396 7.94015C11.2209 7.65924 11.6021 7.50146 11.9996 7.50146C12.3971 7.50146 12.7784 7.65924 13.0596 7.94015L18.7176 13.5961C18.8569 13.7355 18.9674 13.9009 19.0427 14.0829C19.1181 14.2649 19.1568 14.46 19.1568 14.657C19.1567 14.854 19.1179 15.0491 19.0424 15.231C18.967 15.413 18.8565 15.5784 18.7171 15.7176C18.5778 15.8569 18.4124 15.9674 18.2304 16.0427C18.0484 16.1181 17.8533 16.1568 17.6563 16.1568C17.4593 16.1567 17.2642 16.1179 17.0822 16.0424C16.9002 15.967 16.7349 15.8565 16.5956 15.7171L11.9996 11.1221L7.40364 15.7181C7.26533 15.8615 7.09987 15.9758 6.9169 16.0545C6.73393 16.1332 6.53712 16.1747 6.33796 16.1765C6.13879 16.1783 5.94125 16.1405 5.75687 16.0651C5.57249 15.9898 5.40496 15.8785 5.26406 15.7377C5.12315 15.597 5.0117 15.4295 4.93619 15.2452C4.86068 15.0609 4.82263 14.8634 4.82427 14.6643C4.82591 14.4651 4.86719 14.2682 4.94572 14.0852C5.02424 13.9022 5.13844 13.7366 5.28164 13.5981L10.9396 7.94015Z" fill="black"/>
</g>
<defs>
<clipPath id="clip0_2948_246">
<rect width="24" height="24" fill="white"/>
</clipPath>
</defs>
</svg>
