<svg width="35" height="35" viewBox="0 0 35 35" fill="none" xmlns="http://www.w3.org/2000/svg">
<path d="M23.5268 6C21.0377 6 18.8584 7.07036 17.5 8.8796C16.1416 7.07036 13.9623 6 11.4732 6C9.49188 6.00223 7.59234 6.7903 6.19132 8.19132C4.7903 9.59234 4.00223 11.4919 4 13.4732C4 21.9107 16.5104 28.7403 17.0432 29.0223C17.1836 29.0979 17.3406 29.1374 17.5 29.1374C17.6594 29.1374 17.8164 29.0979 17.9568 29.0223C18.4896 28.7403 31 21.9107 31 13.4732C30.9978 11.4919 30.2097 9.59234 28.8087 8.19132C27.4077 6.7903 25.5081 6.00223 23.5268 6Z" fill="#FF6868"/>
</svg>
