<svg width="35" height="35" viewBox="0 0 35 35" fill="none" xmlns="http://www.w3.org/2000/svg">
<path d="M23.5268 6C21.0377 6 18.8584 7.07036 17.5 8.8796C16.1416 7.07036 13.9623 6 11.4732 6C9.49188 6.00223 7.59234 6.7903 6.19132 8.19132C4.7903 9.59234 4.00223 11.4919 4 13.4732C4 21.9107 16.5104 28.7403 17.0432 29.0223C17.1836 29.0979 17.3406 29.1374 17.5 29.1374C17.6594 29.1374 17.8164 29.0979 17.9568 29.0223C18.4896 28.7403 31 21.9107 31 13.4732C30.9978 11.4919 30.2097 9.59234 28.8087 8.19132C27.4077 6.7903 25.5081 6.00223 23.5268 6ZM17.5 27.0696C15.299 25.7871 5.92857 19.9448 5.92857 13.4732C5.93049 12.0033 6.51527 10.5941 7.55467 9.55467C8.59408 8.51527 10.0033 7.93048 11.4732 7.92857C13.8176 7.92857 15.786 9.17732 16.608 11.183C16.6807 11.3599 16.8043 11.5112 16.9631 11.6176C17.1219 11.7241 17.3088 11.7809 17.5 11.7809C17.6912 11.7809 17.8781 11.7241 18.0369 11.6176C18.1957 11.5112 18.3193 11.3599 18.392 11.183C19.214 9.17371 21.1824 7.92857 23.5268 7.92857C24.9967 7.93048 26.4059 8.51527 27.4453 9.55467C28.4847 10.5941 29.0695 12.0033 29.0714 13.4732C29.0714 19.9351 19.6986 25.7859 17.5 27.0696Z" fill="black"/>
</svg>
