<svg width="15" height="16" viewBox="0 0 15 16" fill="none" xmlns="http://www.w3.org/2000/svg">
<path d="M12.0502 11.8871C12.0937 11.9307 12.1283 11.9824 12.1518 12.0393C12.1754 12.0962 12.1875 12.1572 12.1875 12.2188C12.1875 12.2804 12.1754 12.3413 12.1518 12.3982C12.1283 12.4552 12.0937 12.5069 12.0502 12.5504C12.0066 12.594 11.9549 12.6285 11.898 12.6521C11.8411 12.6756 11.7801 12.6878 11.7185 12.6878C11.6569 12.6878 11.5959 12.6756 11.539 12.6521C11.4821 12.6285 11.4304 12.594 11.3869 12.5504L7.49977 8.66271L3.61266 12.5504C3.52471 12.6384 3.40541 12.6878 3.28102 12.6878C3.15663 12.6878 3.03734 12.6384 2.94938 12.5504C2.86143 12.4625 2.81201 12.3432 2.81201 12.2188C2.81201 12.0944 2.86143 11.9751 2.94938 11.8871L6.83708 8.00002L2.94938 4.11291C2.86143 4.02495 2.81201 3.90566 2.81201 3.78127C2.81201 3.65688 2.86143 3.53758 2.94938 3.44963C3.03734 3.36167 3.15663 3.31226 3.28102 3.31226C3.40541 3.31226 3.52471 3.36167 3.61266 3.44963L7.49977 7.33732L11.3869 3.44963C11.4748 3.36167 11.5941 3.31226 11.7185 3.31226C11.8429 3.31226 11.9622 3.36167 12.0502 3.44963C12.1381 3.53758 12.1875 3.65688 12.1875 3.78127C12.1875 3.90566 12.1381 4.02495 12.0502 4.11291L8.16247 8.00002L12.0502 11.8871Z" fill="#696969"/>
</svg>
