<svg width="24" height="24" viewBox="0 0 24 24" fill="none" xmlns="http://www.w3.org/2000/svg">
<g clip-path="url(#clip0_3248_5658)">
<path d="M22.5 2.24766L16.4948 2.24768V0.75293C16.4948 0.338555 16.1591 0.00292969 15.7448 0.00292969C15.3304 0.00292969 14.9948 0.338555 14.9948 0.75293V2.2473H8.99475V0.75293C8.99475 0.338555 8.65913 0.00292969 8.24475 0.00292969C7.83038 0.00292969 7.49475 0.338555 7.49475 0.75293V2.2473H1.5C0.671625 2.2473 0 2.91893 0 3.7473V22.4973C0 23.3257 0.671625 23.9973 1.5 23.9973H22.5C23.3284 23.9973 24 23.3257 24 22.4973V3.7473C24 2.91928 23.3284 2.24766 22.5 2.24766ZM22.5 22.4973H1.5V3.7473H7.49475V4.50293C7.49475 4.91728 7.83038 5.25293 8.24475 5.25293C8.65913 5.25293 8.99475 4.91728 8.99475 4.50293V3.74768H14.9948V4.5033C14.9948 4.91768 15.3304 5.2533 15.7448 5.2533C16.1591 5.2533 16.4948 4.91768 16.4948 4.5033V3.74768H22.5V22.4973ZM17.25 11.9977H18.75C19.164 11.9977 19.5 11.6617 19.5 11.2477V9.74766C19.5 9.33366 19.164 8.99766 18.75 8.99766H17.25C16.836 8.99766 16.5 9.33366 16.5 9.74766V11.2477C16.5 11.6617 16.836 11.9977 17.25 11.9977ZM17.25 17.9973H18.75C19.164 17.9973 19.5 17.6617 19.5 17.2473V15.7473C19.5 15.3333 19.164 14.9973 18.75 14.9973H17.25C16.836 14.9973 16.5 15.3333 16.5 15.7473V17.2473C16.5 17.662 16.836 17.9973 17.25 17.9973ZM12.75 14.9973H11.25C10.836 14.9973 10.5 15.3333 10.5 15.7473V17.2473C10.5 17.6617 10.836 17.9973 11.25 17.9973H12.75C13.164 17.9973 13.5 17.6617 13.5 17.2473V15.7473C13.5 15.3337 13.164 14.9973 12.75 14.9973ZM12.75 8.99766H11.25C10.836 8.99766 10.5 9.33366 10.5 9.74766V11.2477C10.5 11.6617 10.836 11.9977 11.25 11.9977H12.75C13.164 11.9977 13.5 11.6617 13.5 11.2477V9.74766C13.5 9.33328 13.164 8.99766 12.75 8.99766ZM6.75 8.99766H5.25C4.836 8.99766 4.5 9.33366 4.5 9.74766V11.2477C4.5 11.6617 4.836 11.9977 5.25 11.9977H6.75C7.164 11.9977 7.5 11.6617 7.5 11.2477V9.74766C7.5 9.33328 7.164 8.99766 6.75 8.99766ZM6.75 14.9973H5.25C4.836 14.9973 4.5 15.3333 4.5 15.7473V17.2473C4.5 17.6617 4.836 17.9973 5.25 17.9973H6.75C7.164 17.9973 7.5 17.6617 7.5 17.2473V15.7473C7.5 15.3337 7.164 14.9973 6.75 14.9973Z" fill="#666666"/>
</g>
<defs>
<clipPath id="clip0_3248_5658">
<rect width="24" height="24" fill="white"/>
</clipPath>
</defs>
</svg>
