<svg width="35" height="35" viewBox="0 0 35 35" fill="none" xmlns="http://www.w3.org/2000/svg">
<path fill-rule="evenodd" clip-rule="evenodd" d="M18.0001 5.85642C17.2663 5.85642 16.5626 6.1498 16.0437 6.67202C15.5249 7.19424 15.2334 7.90252 15.2334 8.64105V8.96283C15.9183 8.95045 16.6696 8.95045 17.496 8.95045H18.5055C19.3294 8.95045 20.082 8.95045 20.7681 8.96283V8.64105C20.7681 8.27526 20.6965 7.91306 20.5574 7.57513C20.4183 7.23721 20.2144 6.93018 19.9573 6.67158C19.7003 6.41299 19.3951 6.2079 19.0593 6.06803C18.7235 5.92816 18.3636 5.85626 18.0001 5.85642ZM22.6114 9.04699V8.64105C22.6114 7.41017 22.1256 6.2297 21.2608 5.35933C20.396 4.48897 19.2231 4 18.0001 4C16.7772 4 15.6043 4.48897 14.7395 5.35933C13.8747 6.2297 13.3889 7.41017 13.3889 8.64105V9.04699C13.213 9.06184 13.0446 9.07917 12.8798 9.10021C11.6378 9.25491 10.6147 9.57916 9.74413 10.3056C8.87475 11.0321 8.36936 11.9851 7.98939 13.1856C7.62049 14.3489 7.34258 15.8427 6.99336 17.7227L6.96753 17.8588C6.47321 20.511 6.08463 22.6013 6.01208 24.2486C5.9383 25.9379 6.18915 27.3364 7.136 28.4837C8.08284 29.6322 9.40228 30.1372 11.0648 30.376C12.688 30.6087 14.7993 30.6087 17.4812 30.6087H18.5203C21.201 30.6087 23.3135 30.6087 24.9355 30.376C26.598 30.1372 27.9187 29.6322 28.8655 28.4837C29.8124 27.3364 30.0607 25.9379 29.9882 24.2486C29.9169 22.6013 29.5271 20.511 29.0327 17.8588L29.0081 17.7227C28.6577 15.8427 28.3786 14.3477 28.0121 13.1856C27.6309 11.9851 27.1268 11.0321 26.2561 10.3056C25.3868 9.57916 24.3625 9.25367 23.1205 9.10021C22.9511 9.0793 22.7814 9.06156 22.6114 9.04699Z" fill="#FF6868"/>
</svg>
