<svg width="128" height="128" viewBox="0 0 128 128" fill="none" xmlns="http://www.w3.org/2000/svg">
<g filter="url(#filter0_d_2948_258)">
<rect x="19" y="14" width="90" height="90" rx="42" fill="#FF6868"/>
<path d="M74.7143 38C70.2893 38 66.415 39.9029 64 43.1193C61.585 39.9029 57.7107 38 53.2857 38C49.7633 38.004 46.3864 39.405 43.8957 41.8957C41.405 44.3864 40.004 47.7633 40 51.2857C40 66.2857 62.2407 78.4271 63.1879 78.9286C63.4375 79.0629 63.7165 79.1332 64 79.1332C64.2835 79.1332 64.5625 79.0629 64.8121 78.9286C65.7593 78.4271 88 66.2857 88 51.2857C87.996 47.7633 86.595 44.3864 84.1043 41.8957C81.6136 39.405 78.2367 38.004 74.7143 38ZM64 75.4571C60.0871 73.1771 43.4286 62.7907 43.4286 51.2857C43.432 48.6725 44.4716 46.1673 46.3194 44.3194C48.1673 42.4716 50.6725 41.432 53.2857 41.4286C57.4536 41.4286 60.9529 43.6486 62.4143 47.2143C62.5434 47.5287 62.7632 47.7976 63.0455 47.9869C63.3278 48.1761 63.6601 48.2772 64 48.2772C64.3399 48.2772 64.6722 48.1761 64.9545 47.9869C65.2368 47.7976 65.4566 47.5287 65.5857 47.2143C67.0471 43.6421 70.5464 41.4286 74.7143 41.4286C77.3275 41.432 79.8327 42.4716 81.6806 44.3194C83.5284 46.1673 84.568 48.6725 84.5714 51.2857C84.5714 62.7736 67.9086 73.175 64 75.4571Z" fill="white"/>
</g>
<defs>
<filter id="filter0_d_2948_258" x="0.6" y="0.6" width="126.8" height="126.8" filterUnits="userSpaceOnUse" color-interpolation-filters="sRGB">
<feFlood flood-opacity="0" result="BackgroundImageFix"/>
<feColorMatrix in="SourceAlpha" type="matrix" values="0 0 0 0 0 0 0 0 0 0 0 0 0 0 0 0 0 0 127 0" result="hardAlpha"/>
<feOffset dy="5"/>
<feGaussianBlur stdDeviation="9.2"/>
<feComposite in2="hardAlpha" operator="out"/>
<feColorMatrix type="matrix" values="0 0 0 0 0 0 0 0 0 0 0 0 0 0 0 0 0 0 0.25 0"/>
<feBlend mode="normal" in2="BackgroundImageFix" result="effect1_dropShadow_2948_258"/>
<feBlend mode="normal" in="SourceGraphic" in2="effect1_dropShadow_2948_258" result="shape"/>
</filter>
</defs>
</svg>
