<svg width="278" height="27" viewBox="0 0 278 27" fill="none" xmlns="http://www.w3.org/2000/svg">
<path d="M0.651042 13.5C0.651042 20.8638 6.62058 26.8333 13.9844 26.8333C21.3482 26.8333 27.3177 20.8638 27.3177 13.5C27.3177 6.1362 21.3482 0.166667 13.9844 0.166667C6.62058 0.166667 0.651042 6.1362 0.651042 13.5ZM250.651 13.5C250.651 20.8638 256.621 26.8333 263.984 26.8333C271.348 26.8333 277.318 20.8638 277.318 13.5C277.318 6.1362 271.348 0.166667 263.984 0.166667C256.621 0.166667 250.651 6.1362 250.651 13.5ZM13.9844 16H263.984V11H13.9844V16Z" fill="#FF6868"/>
</svg>
