<svg width="278" height="28" viewBox="0 0 278 28" fill="none" xmlns="http://www.w3.org/2000/svg">
<path d="M0.666667 14C0.666667 21.3638 6.6362 27.3333 14 27.3333C21.3638 27.3333 27.3333 21.3638 27.3333 14C27.3333 6.6362 21.3638 0.666667 14 0.666667C6.6362 0.666667 0.666667 6.6362 0.666667 14ZM250.667 14C250.667 21.3638 256.636 27.3333 264 27.3333C271.364 27.3333 277.333 21.3638 277.333 14C277.333 6.6362 271.364 0.666667 264 0.666667C256.636 0.666667 250.667 6.6362 250.667 14ZM14 16.5H264V11.5H14V16.5Z" fill="#CACACA"/>
</svg>
