<svg width="278" height="27" viewBox="0 0 278 27" fill="none" xmlns="http://www.w3.org/2000/svg">
<path d="M0.666667 13.5C0.666667 20.8638 6.6362 26.8333 14 26.8333C21.3638 26.8333 27.3333 20.8638 27.3333 13.5C27.3333 6.1362 21.3638 0.166667 14 0.166667C6.6362 0.166667 0.666667 6.1362 0.666667 13.5ZM250.667 13.5C250.667 20.8638 256.636 26.8333 264 26.8333C271.364 26.8333 277.333 20.8638 277.333 13.5C277.333 6.1362 271.364 0.166667 264 0.166667C256.636 0.166667 250.667 6.1362 250.667 13.5ZM14 16H264V11H14V16Z" fill="#CACACA"/>
</svg>
